<svg width="273" height="213" viewBox="0 0 273 213" fill="none" xmlns="http://www.w3.org/2000/svg">
<g filter="url(#filter0_d_123_492)">
<path d="M122.725 47.2908L21.1371 106.385C20.1505 106.959 19.3333 107.783 18.7684 108.775C18.2035 109.767 17.911 110.891 17.9206 112.032C17.9302 113.173 18.2416 114.292 18.8231 115.274C19.4046 116.256 20.2355 117.067 21.2316 117.624L145.587 187.214C147.09 188.055 148.781 188.503 150.503 188.517C152.226 188.532 153.924 188.111 155.441 187.296L250.98 135.913C252.199 135.258 253.221 134.29 253.941 133.108C254.661 131.927 255.054 130.575 255.078 129.192C255.103 127.808 254.758 126.443 254.08 125.237C253.402 124.031 252.414 123.028 251.219 122.33L122.725 47.2908Z" fill="#FFD6A9"/>
<path d="M52.53 88.3857L39.9741 95.6811C39.9741 95.6811 40.6734 106.334 53.5254 104.684L76.6905 91.9956" fill="url(#paint0_linear_123_492)"/>
<path d="M66.4847 94.1944C74.1985 94.1944 80.4518 91.103 80.4518 87.2896C80.4518 83.4761 74.1985 80.3848 66.4847 80.3848C58.7709 80.3848 52.5176 83.4761 52.5176 87.2896C52.5176 91.103 58.7709 94.1944 66.4847 94.1944Z" fill="#F3A71C"/>
<path d="M80.4455 68.8998V87.6738C80.4455 87.6738 70.0505 97.2939 52.5176 87.8313V68.9313" fill="#F3A71C"/>
<path d="M54.609 75.6094C54.609 75.6094 52.2969 72.0688 50.1171 74.11C47.9373 76.1512 49.8462 83.2324 56.2407 83.9128V86.773C56.2407 86.773 48.2082 85.6831 47.1183 78.4696C46.0284 71.2561 51.207 70.141 53.79 72.1255" fill="#F3A71C"/>
<path d="M133.668 93.8856L121.616 99.6879C121.162 99.9058 120.776 100.243 120.499 100.664C120.222 101.085 120.065 101.573 120.045 102.077C120.025 102.58 120.143 103.079 120.385 103.521C120.627 103.962 120.985 104.33 121.421 104.583L149.991 121.247C150.608 121.607 151.341 121.715 152.036 121.548C152.731 121.382 153.334 120.953 153.721 120.352L160.651 109.554" fill="#56403D"/>
<path d="M106.282 130.243L58.8554 105.27L51.6104 109.995L128.949 152.331L139.596 145.369" fill="url(#paint1_linear_123_492)"/>
<path d="M147.162 153.912L135.873 160.603C135.873 160.603 143.275 167.696 151.894 171.313L162.371 164.471" fill="url(#paint2_linear_123_492)"/>
<path d="M146.079 149.118V154.397L162.37 164.477L181.919 152.532V148.034" fill="#6DE1FC"/>
<path d="M146.079 149.118V154.397L162.37 164.477L181.919 152.532V148.034" fill="#E54C3C"/>
<path d="M181.919 148.034L165.319 138.105L146.079 149.118L162.679 159.204L181.919 148.034Z" fill="#F5604B"/>
<path d="M166.163 151.6C165.733 151.081 165.367 150.512 165.073 149.905C165.004 149.502 165.987 147.581 166.17 147.637C166.829 147.968 167.446 148.376 168.009 148.853" fill="#C67445"/>
<path d="M166.34 148.45C166.377 148.601 165.798 151.493 166.163 151.6C166.936 151.672 167.715 151.672 168.488 151.6C168.634 150.556 168.722 149.504 168.752 148.45" fill="#56403D"/>
<path d="M169.08 144.758L166.169 145.571C166.169 145.64 165.69 148.261 166.056 148.652C166.521 148.982 167.005 149.285 167.505 149.559C167.502 150.475 167.554 151.39 167.662 152.299C167.835 152.332 168.012 152.332 168.185 152.299C168.305 151.348 168.469 149.414 168.469 149.414C168.469 149.414 169.319 149.118 169.37 148.853C169.42 148.589 169.08 144.758 169.08 144.758Z" fill="#C67445"/>
<path d="M175.008 165.252C175.008 165.252 173.748 163.646 173.647 163.135C173.547 162.625 174.788 160.231 175.021 160.3C175.843 160.713 176.613 161.223 177.314 161.819" fill="#C67445"/>
<path d="M175.229 161.308C175.273 161.497 174.549 165.088 175.008 165.252C175.974 165.342 176.947 165.342 177.913 165.252C178.064 165.252 178.24 161.308 178.24 161.308" fill="#56403D"/>
<path d="M178.656 156.734L175.021 157.749C175.021 157.837 174.422 161.107 174.876 161.592C175.33 162.077 176.716 162.638 176.684 162.726C176.68 163.867 176.745 165.007 176.879 166.14C177.088 166.178 177.301 166.178 177.509 166.14C177.654 164.95 177.862 162.537 177.862 162.537C177.862 162.537 178.927 162.165 178.984 161.837C179.04 161.51 178.656 156.734 178.656 156.734Z" fill="#C67445"/>
<path d="M199.244 65.964L103.106 10.5807C102.446 10.1992 101.696 9.99886 100.933 10C100.17 10.0012 99.4203 10.2037 98.7606 10.5873C98.1009 10.9708 97.5542 11.5217 97.1756 12.1843C96.7971 12.8469 96.6002 13.5977 96.6049 14.3607V71.9742C96.5997 72.6117 96.7638 73.2392 97.0803 73.7926C97.3968 74.346 97.8545 74.8055 98.4067 75.1242L200.882 134.275C201.236 134.48 201.638 134.588 202.046 134.588C202.455 134.589 202.857 134.481 203.211 134.277C203.565 134.072 203.858 133.778 204.062 133.424C204.266 133.069 204.373 132.668 204.373 132.259V74.8344C204.372 73.0357 203.898 71.2688 202.998 69.7115C202.098 68.1543 200.803 66.8618 199.244 65.964Z" fill="#68E1FD"/>
<path d="M103.119 14.934L196.359 68.5659C197.356 69.1392 198.183 69.9653 198.759 70.9608C199.334 71.9564 199.636 73.0861 199.635 74.2359V117.429C199.634 117.842 199.525 118.248 199.318 118.606C199.112 118.964 198.814 119.262 198.457 119.469C198.099 119.676 197.693 119.786 197.28 119.787C196.866 119.789 196.46 119.681 196.101 119.476L101.04 64.9182C100.684 64.7152 100.389 64.4218 100.183 64.0678C99.9773 63.7138 99.8686 63.3117 99.8682 62.9022V16.8303C99.8723 16.4512 99.9746 16.0796 100.165 15.7518C100.356 15.424 100.628 15.1513 100.956 14.9602C101.283 14.7692 101.655 14.6663 102.034 14.6617C102.413 14.6571 102.787 14.751 103.119 14.934Z" fill="white"/>
<path d="M97.449 78.8349C99.1626 78.5514 119.014 90.975 119.014 90.975V95.8323L110.874 100.4L88.7424 88.2597V82.5519L97.449 78.8349Z" fill="#6DE1FC"/>
<path d="M97.449 78.8349C99.1626 78.5514 119.014 90.975 119.014 90.975V95.8323L110.874 100.4L88.7424 88.2597V82.5519L97.449 78.8349Z" fill="#F1A317"/>
<path d="M84.03 90.8931L58.83 105.27C58.567 105.421 58.3485 105.639 58.1965 105.902C58.0446 106.164 57.9646 106.463 57.9646 106.766C57.9646 107.069 58.0446 107.368 58.1965 107.63C58.3485 107.893 58.567 108.111 58.83 108.262L128.703 148.45C129.551 148.939 130.512 149.196 131.491 149.196C132.47 149.196 133.431 148.939 134.279 148.45L157.809 134.861C158.09 134.705 158.324 134.476 158.487 134.2C158.65 133.923 158.736 133.607 158.736 133.286C158.736 132.965 158.65 132.649 158.487 132.372C158.324 132.095 158.09 131.867 157.809 131.711L87.1233 90.8805C86.6501 90.6164 86.1169 90.4788 85.575 90.481C85.0331 90.4832 84.501 90.6251 84.03 90.8931Z" fill="#974C26"/>
<path d="M100.171 137.935C100.116 137.604 99.9815 137.29 99.7784 137.022C99.5753 136.754 99.3099 136.54 99.0053 136.398L95.2757 134.243L89.5112 130.904L82.6253 126.917L75.2984 122.67L68.2109 118.569L62.0495 115.003L57.4946 112.364L55.1006 110.978C55.1006 111.028 55.0187 111.028 54.9683 111.015C54.6804 110.94 54.3778 110.941 54.0905 111.019C53.8032 111.096 53.5412 111.248 53.3305 111.458C53.1198 111.668 52.9676 111.93 52.8891 112.217C52.8106 112.504 52.8085 112.806 52.883 113.094C53.2652 114.188 53.987 115.13 54.9431 115.784C57.7312 117.786 60.6411 119.612 63.656 121.253V120.176C61.6274 119.067 57.2552 116.559 55.4156 114.669L56.2913 115.18L58.7042 116.591L62.333 118.714L66.8627 121.36L71.9783 124.346L77.3585 127.496L82.6883 130.615L87.6527 133.513L91.9304 136.033L95.2064 137.923C96.2081 138.509 97.2917 139.302 98.4572 139.529C98.6761 139.545 98.8959 139.515 99.1029 139.442C99.3099 139.369 99.4997 139.254 99.6604 139.105C99.8211 138.955 99.9494 138.774 100.037 138.573C100.125 138.372 100.17 138.155 100.171 137.935Z" fill="#6DE1FC"/>
<path d="M100.171 137.935C100.116 137.604 99.9815 137.29 99.7784 137.022C99.5753 136.754 99.3099 136.54 99.0053 136.398L95.2757 134.243L89.5112 130.904L82.6253 126.917L75.2984 122.67L68.2109 118.569L62.0495 115.003L57.4946 112.364L55.1006 110.978C55.1006 111.028 55.0187 111.028 54.9683 111.015C54.6804 110.94 54.3778 110.941 54.0905 111.019C53.8032 111.096 53.5412 111.248 53.3305 111.458C53.1198 111.668 52.9676 111.93 52.8891 112.217C52.8106 112.504 52.8085 112.806 52.883 113.094C53.2652 114.188 53.987 115.13 54.9431 115.784C57.7312 117.786 60.6411 119.612 63.656 121.253V120.176C61.6274 119.067 57.2552 116.559 55.4156 114.669L56.2913 115.18L58.7042 116.591L62.333 118.714L66.8627 121.36L71.9783 124.346L77.3585 127.496L82.6883 130.615L87.6527 133.513L91.9304 136.033L95.2064 137.923C96.2081 138.509 97.2917 139.302 98.4572 139.529C98.6761 139.545 98.8959 139.515 99.1029 139.442C99.3099 139.369 99.4997 139.254 99.6604 139.105C99.8211 138.955 99.9494 138.774 100.037 138.573C100.125 138.372 100.17 138.155 100.171 137.935Z" fill="#999A1C"/>
<path d="M142.336 96.4033C143.436 96.1915 144.132 95.0005 143.889 93.7431C143.647 92.4858 142.559 91.6383 141.459 91.8502C140.359 92.062 139.663 93.253 139.905 94.5103C140.148 95.7676 141.236 96.6152 142.336 96.4033Z" fill="#AB643C"/>
<path d="M142.261 45.3693L169.433 61.1193C169.711 61.2806 169.941 61.5149 170.096 61.7968C170.252 62.0788 170.327 62.3978 170.315 62.7195L169.376 87.1068C169.365 87.4115 169.275 87.7082 169.115 87.9679C168.955 88.2277 168.731 88.4417 168.464 88.5894C168.197 88.7371 167.897 88.8133 167.592 88.8107C167.287 88.8082 166.988 88.7269 166.724 88.5747L140.491 73.4988C140.22 73.3435 139.996 73.1195 139.84 72.8496C139.684 72.5797 139.602 72.2734 139.602 71.9616V46.9065C139.601 46.595 139.682 46.2886 139.838 46.0185C139.993 45.7484 140.217 45.524 140.486 45.368C140.756 45.2121 141.062 45.1301 141.374 45.1303C141.685 45.1305 141.991 45.213 142.261 45.3693Z" fill="#A8A93D"/>
<path d="M151.994 49.647C151.996 49.6281 151.996 49.6092 151.994 49.5903L151.893 48.7398C150.841 48.6894 150.243 48.9414 149.191 48.9477C148.671 49.4809 148.326 50.16 148.202 50.8944C148.202 51.4173 148.265 52.1544 148.907 52.0788C149.008 52.5639 149.292 53.2002 149.865 53.0679L149.94 53.0364C149.978 53.3577 150.079 53.6664 150.388 53.7609C150.696 53.8554 150.892 53.6853 151.018 53.4018C151.131 53.8302 151.333 54.4854 151.767 54.4791C152.36 54.4791 152.397 53.6034 152.246 52.734C152.233 51.7004 152.149 50.669 151.994 49.647Z" fill="#FBB5AD"/>
<path d="M149.058 50.6109C148.892 51.0815 148.819 51.5802 148.844 52.0788C148.844 52.2363 149.09 52.2363 149.084 52.0788C149.06 51.6014 149.131 51.124 149.292 50.6739C149.342 50.529 149.109 50.466 149.058 50.6109Z" fill="#56403D"/>
<path d="M149.941 51.0897L149.84 53.112C149.84 53.2695 150.073 53.2695 150.079 53.112L150.18 51.0897C150.18 50.9385 149.953 50.9385 149.941 51.0897Z" fill="#56403D"/>
<path d="M150.81 50.7999V53.4774C150.81 53.5092 150.823 53.5396 150.845 53.5621C150.868 53.5845 150.898 53.5971 150.93 53.5971C150.962 53.5971 150.992 53.5845 151.014 53.5621C151.037 53.5396 151.049 53.5092 151.049 53.4774V50.7999C151.049 50.7682 151.037 50.7377 151.014 50.7153C150.992 50.6928 150.962 50.6802 150.93 50.6802C150.898 50.6802 150.868 50.6928 150.845 50.7153C150.823 50.7377 150.81 50.7682 150.81 50.7999Z" fill="#56403D"/>
<path d="M151.881 48.7398C152.663 49.5619 153.133 50.6316 153.21 51.7638L152.07 51.0456L151.881 48.7398Z" fill="#FBB5AD"/>
<path d="M162.478 54.4476C162.478 54.4476 161.633 54.5988 161.615 54.5862C160.884 55.0461 159.025 55.9974 158.25 56.3691C157.79 56.5896 156.65 57.0684 156.902 57.7614C157.034 58.1331 157.406 58.1961 157.885 58.089C157.851 58.1878 157.852 58.2954 157.889 58.3932C157.926 58.4911 157.996 58.5729 158.087 58.6245C158.235 58.6937 158.4 58.7209 158.564 58.7031C158.727 58.6854 158.882 58.6233 159.013 58.5237C159.037 58.6408 159.102 58.7456 159.195 58.8198C159.592 59.16 160.348 58.782 160.783 58.5804C160.775 58.66 160.775 58.7402 160.783 58.8198C160.783 59.0718 161.035 59.3175 161.268 59.1915C162.383 58.5993 164.135 56.4384 164.645 55.4115C163.586 55.0083 163.517 54.8886 162.478 54.4476Z" fill="#FBB5AD"/>
<path d="M161.722 57.4905C161.43 57.8984 161.082 58.2632 160.689 58.5741C160.575 58.6623 160.733 58.8135 160.846 58.7316C161.254 58.408 161.615 58.0283 161.917 57.6039C161.993 57.4905 161.804 57.3771 161.722 57.4905Z" fill="#56403D"/>
<path d="M161.06 56.9299C160.418 57.4423 159.762 57.9379 159.095 58.4167C158.981 58.4986 159.095 58.6876 159.208 58.6057C159.909 58.1143 160.579 57.6124 161.218 57.1C161.325 56.9992 161.167 56.8417 161.06 56.9299Z" fill="#56403D"/>
<path d="M160.021 56.6526C159.333 57.1374 158.604 57.5591 157.841 57.9126C157.715 57.9756 157.841 58.1646 157.954 58.1016C158.717 57.7481 159.447 57.3264 160.134 56.8416C160.26 56.7597 160.134 56.5707 160.021 56.6526Z" fill="#56403D"/>
<path d="M161.615 54.5799C161.615 54.5799 160.55 53.7987 158.754 54.9957L160.26 55.9344" fill="#FBB5AD"/>
<path d="M185.107 96.2166C185.094 96.1726 185.071 96.1317 185.042 96.0967C185.012 96.0617 184.975 96.0332 184.933 96.0131C184.892 95.993 184.847 95.9817 184.801 95.9798C184.755 95.978 184.709 95.9857 184.666 96.0024C184.684 95.7928 184.684 95.5821 184.666 95.3724C184.666 95.0763 184.609 94.6542 184.288 94.5282C184.195 94.4937 184.093 94.4903 183.997 94.5187C183.902 94.5471 183.818 94.6057 183.759 94.6857C183.723 94.4925 183.67 94.3028 183.601 94.1187C183.58 94.05 183.538 93.9897 183.48 93.9467C183.422 93.9037 183.352 93.8801 183.28 93.8793C182.921 93.8793 182.738 94.1691 182.65 94.5093C182.65 94.4778 182.518 94.3581 182.486 94.3392C182.428 94.2966 182.357 94.2725 182.285 94.2699C182.149 94.2618 182.015 94.302 181.907 94.3833C181.803 94.4854 181.74 94.6222 181.73 94.7676C181.702 95.0083 181.702 95.2515 181.73 95.4921C181.73 95.7882 181.793 96.078 181.812 96.3741C181.831 96.6702 181.812 96.7899 181.812 97.0041C181.535 96.4686 181.144 95.8008 180.691 96.1158C180.237 96.4308 180.634 96.8592 180.76 97.1553C181.02 97.7425 181.327 98.3072 181.68 98.8437C181.632 99.1082 181.567 99.3691 181.485 99.6249C182.328 99.969 183.143 100.378 183.923 100.847C184.173 100.011 184.474 99.19 184.824 98.3901C185.202 97.7318 185.304 96.9501 185.107 96.2166Z" fill="#FBB5AD"/>
<path d="M182.587 94.5031C182.562 95.3179 182.518 96.1306 182.455 96.9412C182.455 97.0105 182.562 97.0105 182.562 96.9412C182.625 96.1306 182.669 95.3179 182.694 94.5031C182.701 94.4275 182.587 94.4275 182.587 94.5031Z" fill="#56403D"/>
<path d="M183.684 94.711C183.612 95.446 183.524 96.1768 183.419 96.9034C183.419 96.9727 183.513 97.0042 183.526 96.9034C183.635 96.1642 183.726 95.4229 183.797 94.6795C183.797 94.6417 183.69 94.6417 183.684 94.711Z" fill="#56403D"/>
<path d="M184.641 96.0718C184.587 96.5842 184.507 97.0924 184.402 97.5964C184.402 97.6657 184.496 97.6972 184.509 97.5964C184.614 97.084 184.694 96.5674 184.748 96.0466C184.755 96.0025 184.648 96.0025 184.641 96.0718Z" fill="#56403D"/>
<path d="M159.737 96.0906C159.661 95.9205 159.586 95.7504 159.517 95.574C159.477 95.4829 159.462 95.383 159.472 95.2842C159.527 95.0181 159.565 94.7488 159.586 94.4778C159.569 93.6139 159.397 92.7601 159.076 91.9578C159.036 91.8301 158.967 91.7133 158.875 91.6167C158.782 91.5201 158.669 91.4463 158.543 91.4011C158.417 91.3559 158.282 91.3405 158.15 91.3562C158.017 91.372 157.89 91.4183 157.778 91.4916L157.545 91.0695C157.11 90.3009 156.644 88.9779 155.655 88.8771C155.578 88.8758 155.503 88.893 155.435 88.9272C155.367 88.9614 155.308 89.0116 155.263 89.0735C155.218 89.1354 155.19 89.2072 155.179 89.2827C155.168 89.3582 155.176 89.4352 155.201 89.5071C155.39 90.0048 155.585 90.4962 155.787 90.9813C155.745 90.9361 155.693 90.9001 155.636 90.8755C155.58 90.8509 155.518 90.8382 155.456 90.8382C155.394 90.8382 155.333 90.8509 155.276 90.8755C155.219 90.9001 155.168 90.9361 155.125 90.9813C155.009 91.0994 154.932 91.2502 154.904 91.4134C154.876 91.5767 154.898 91.7447 154.968 91.8948H154.848C154.743 91.841 154.627 91.8109 154.508 91.8066C154.413 91.8124 154.321 91.8385 154.237 91.883C154.154 91.9276 154.081 91.9896 154.023 92.0649C153.957 92.1544 153.914 92.2582 153.897 92.3678C153.879 92.4773 153.888 92.5895 153.922 92.6949H153.84C153.746 92.7299 153.661 92.787 153.593 92.8615C153.525 92.9361 153.476 93.0259 153.45 93.1233C153.415 93.2555 153.415 93.3944 153.45 93.5265C153.399 94.0179 155.97 96.4245 155.97 96.4245L157.494 98.094L160.052 96.8781C160.09 96.7899 159.769 96.1599 159.737 96.0906Z" fill="#FBB5AD"/>
<path d="M177.081 119.287C172.539 111.526 168.261 119.111 168.261 119.111C166.499 121.52 165.127 124.193 164.198 127.03C163.152 130.596 163.158 142.15 163.675 145.59C165.565 146.32 169.792 146.1 171.764 145.539V131.679C171.772 131.641 171.792 131.606 171.823 131.581C171.853 131.555 171.891 131.542 171.931 131.542C171.97 131.542 172.009 131.555 172.039 131.581C172.07 131.606 172.09 131.641 172.098 131.679L172.192 159.204C175.509 159.327 178.817 158.783 181.92 157.604C181.92 157.604 181.353 126.589 177.081 119.287Z" fill="#F3A71C"/>
<path d="M159.769 95.3157C158.401 95.6496 157.469 96.3678 156.285 97.1238C156.719 98.6484 161.482 110.555 167.473 113.075L167.952 104.602C167.952 104.602 165.3 104.35 159.769 95.3157Z" fill="#F5604B"/>
<path d="M180.729 99.0138C180.542 100.488 180.028 101.902 179.225 103.152C178.422 104.403 177.349 105.457 176.086 106.24L176.898 114.02C180.533 111.683 184.364 102.995 184.925 100.727C184.373 100.179 183.718 99.746 182.998 99.4519C182.278 99.1578 181.507 99.0089 180.729 99.0138Z" fill="#F5604B"/>
<path d="M166.793 113.554L167.593 120.528C167.593 120.528 173.339 122.702 177.591 120.528V113.46" fill="#F5604B"/>
<path d="M180.294 111.551C180.178 111.158 179.985 110.792 179.727 110.474C179.325 110.007 178.887 109.573 178.417 109.176C178.301 109.084 178.21 108.965 178.152 108.829C177.957 108.237 178.65 107.33 178.555 106.605C178.41 105.534 177.73 105.175 177.062 104.47C176.7 104.108 176.464 103.64 176.388 103.134C176.005 102.363 175.709 101.552 175.506 100.715C175.021 99.3478 174.246 97.8358 172.778 97.3381C171.966 97.078 171.097 97.0525 170.272 97.2642C169.446 97.4759 168.696 97.9165 168.11 98.5351C167.102 99.688 167.297 101.257 167.184 102.699C167.249 102.83 167.294 102.971 167.316 103.115C167.511 104.514 165.672 104.577 165.502 105.686C165.479 105.896 165.49 106.108 165.533 106.316C165.676 107.111 166.019 107.856 166.529 108.483C167.789 110.184 164.859 111.059 164.872 112.634C164.907 113.202 165.092 113.75 165.407 114.224C165.722 114.697 166.157 115.079 166.667 115.331C169.153 116.565 171.993 116.889 174.693 116.244C176.709 115.784 180.987 114.109 180.294 111.551ZM169.08 108.955C169.08 108.924 169.08 108.886 169.08 108.854H169.193L169.08 108.955Z" fill="#56403D"/>
<path d="M171.764 131.667L165.375 130.243L171.449 134.981L171.764 131.667Z" fill="#56403D"/>
<path d="M156.681 92.4997C156.181 91.5121 155.759 90.4861 155.421 89.4316C155.371 89.2678 155.106 89.3371 155.163 89.5009C155.499 90.5827 155.92 91.6361 156.423 92.6509C156.524 92.7895 156.757 92.6509 156.681 92.4997Z" fill="#56403D"/>
<path d="M155.68 93.1296C155.431 92.7045 155.208 92.2648 155.012 91.8129C154.943 91.6554 154.71 91.8129 154.779 91.9515C154.975 92.4034 155.198 92.8431 155.447 93.2682C155.465 93.2991 155.495 93.3215 155.53 93.3303C155.565 93.3392 155.602 93.3338 155.633 93.3155C155.664 93.2971 155.686 93.2672 155.695 93.2323C155.704 93.1975 155.698 93.1605 155.68 93.1296Z" fill="#56403D"/>
<path d="M154.71 93.8289C154.432 93.4692 154.219 93.0642 154.08 92.6319C154.029 92.4681 153.765 92.5374 153.821 92.7012C153.958 93.1541 154.171 93.5802 154.451 93.9612C154.59 94.1061 154.817 93.9675 154.71 93.8289Z" fill="#56403D"/>
<path d="M158.716 93.0414C158.456 92.5122 158.217 91.9725 157.998 91.4223C157.935 91.2648 157.671 91.3341 157.74 91.4916C157.967 92.0628 158.215 92.6235 158.483 93.1737C158.559 93.3375 158.792 93.1989 158.716 93.0414Z" fill="#56403D"/>
<path d="M98.7722 44.4369C98.8113 44.3725 98.831 44.2981 98.8289 44.2227C98.832 43.8502 98.758 43.4811 98.6116 43.1385C98.4653 42.7959 98.2497 42.4872 97.9784 42.2319C97.8724 42.1359 97.7458 42.0656 97.6083 42.0263C97.4708 41.9871 97.3262 41.9799 97.1855 42.0055C97.0448 42.0311 96.9119 42.0887 96.797 42.1738C96.6822 42.259 96.5884 42.3694 96.5231 42.4965C95.9309 43.7124 97.2854 44.9283 98.369 45.0732C98.6714 45.111 98.7911 44.859 98.7407 44.6196C98.7648 44.5619 98.7755 44.4994 98.7722 44.4369Z" fill="#FBB5AD"/>
<path d="M97.6947 65.4538L95.5149 64.2379L97.3293 69.2023L97.6947 65.4538Z" fill="#382624"/>
<path d="M122.013 113.8L114.831 118.052L120.161 121.146C121.666 120.27 125.976 117.725 127.362 116.906L122.013 113.8Z" fill="white"/>
<path d="M114.144 109.239L106.962 113.491L113.709 117.41C114.887 116.729 119.241 114.159 120.916 113.17L114.144 109.239Z" fill="white"/>
<path d="M85.5674 92.6445L78.272 96.834L84.761 100.614C85.7879 100.022 90.1916 97.4199 91.9682 96.3741L85.5674 92.6445Z" fill="white"/>
<path d="M100.933 101.565L93.751 105.818L99.0808 108.911C100.341 108.18 104.669 105.623 106.288 104.671L100.933 101.565Z" fill="white"/>
<path d="M93.0643 96.9979L85.8823 101.25L92.6296 105.169C93.4234 104.715 97.9405 102.019 99.8368 100.929L93.0643 96.9979Z" fill="white"/>
<path d="M128.458 117.58L121.276 121.832L126.372 124.793C127.903 123.899 132.219 121.354 133.573 120.554L128.458 117.58Z" fill="white"/>
<path d="M107.378 105.308L100.196 109.56L105.866 112.836C107.195 112.067 111.536 109.516 113.073 108.596L107.378 105.308Z" fill="white"/>
<path d="M134.676 121.158L127.5 125.417L134.247 129.336C135.659 128.517 139.968 125.972 141.448 125.096L134.676 121.158Z" fill="white"/>
<path d="M142.544 125.732L135.369 129.985L147.477 137.015L154.766 132.826L142.544 125.732Z" fill="white"/>
<path d="M77.3457 98.0499L70.0503 102.239L79.5003 107.714C80.7603 106.996 85.0695 104.438 86.7075 103.474L77.3457 98.0499Z" fill="white"/>
<path d="M95.6471 108.703L88.4399 112.956L93.7697 116.049C95.1935 115.217 99.5027 112.679 100.971 111.809L95.6471 108.703Z" fill="white"/>
<path d="M108.858 116.377L101.67 120.629L108.417 124.548C109.772 123.76 114.087 121.215 115.624 120.308L108.858 116.377Z" fill="white"/>
<path d="M102.099 112.445L94.9165 116.698L100.587 119.974C102.067 119.111 106.376 116.566 107.787 115.734L102.099 112.445Z" fill="white"/>
<path d="M116.727 120.944L109.545 125.197L114.9 128.29C116.544 127.326 120.885 124.768 122.101 124.05L116.727 120.944Z" fill="white"/>
<path d="M123.178 124.686L115.996 128.92L121.093 131.881C122.769 130.904 127.116 128.34 128.294 127.641L123.178 124.686Z" fill="white"/>
<path d="M87.8099 104.136L80.6279 108.388L87.3752 112.307C88.4462 111.677 92.831 109.1 94.5824 108.067L87.8099 104.136Z" fill="white"/>
<path d="M129.39 128.29L122.208 132.542L128.962 136.48C130.524 135.573 134.833 133.021 136.163 132.24L129.39 128.29Z" fill="white"/>
<path d="M130.083 137.123L139.25 142.446L146.545 138.257L137.259 132.87L130.083 137.123Z" fill="white"/>
<path d="M124.715 136.392L119.373 139.567L125.566 143.152L130.99 140.039L124.715 136.392Z" fill="white"/>
<path d="M126.845 143.895L132.112 146.944L137.542 143.845L132.181 140.726L126.845 143.895Z" fill="white"/>
<path d="M68.343 103.657L62.7549 106.763L69.099 110.436L74.5863 107.286L68.343 103.657Z" fill="white"/>
<path d="M75.7707 107.972L70.3779 111.173L77.1504 115.098L82.6314 111.954L75.7707 107.972Z" fill="white"/>
<path d="M83.822 112.647L78.4355 115.841L118.081 138.817L123.518 135.699L83.822 112.647Z" fill="white"/>
<path d="M110.649 46.2202C114.363 46.1151 117.235 41.0959 117.063 35.0094C116.891 28.9229 113.74 24.0739 110.026 24.179C106.311 24.284 103.439 29.3033 103.611 35.3898C103.784 41.4763 106.934 46.3252 110.649 46.2202Z" fill="#E2E2E2"/>
<path d="M115.616 33.935C116.118 28.354 113.513 23.5586 109.797 23.2242C106.081 22.8898 102.661 27.1429 102.159 32.7238C101.656 38.3048 104.262 43.1002 107.978 43.4346C111.694 43.769 115.113 39.5159 115.616 33.935Z" fill="#E35541"/>
<path d="M111.42 32.4496C111.57 30.8318 110.508 29.4097 109.046 29.2733C107.584 29.1369 106.276 30.3378 106.125 31.9557C105.974 33.5735 107.037 34.9956 108.499 35.132C109.961 35.2684 111.269 34.0675 111.42 32.4496Z" fill="white"/>
<path d="M103 38.6599C103 38.6599 104.575 35.176 107.372 35.617C110.169 36.058 111.946 37.507 113.098 41.4445C112.425 42.4288 111.452 43.17 110.324 43.5581C109.196 43.9461 107.973 43.9605 106.836 43.5991C105.842 43.1515 104.973 42.4674 104.304 41.6064C103.635 40.7454 103.187 39.7338 103 38.6599Z" fill="white"/>
<path d="M117.552 36.4422C117.538 36.4024 117.519 36.3644 117.496 36.3288C117.581 36.2482 117.647 36.1501 117.691 36.0414C117.734 35.9327 117.754 35.8158 117.748 35.6988C117.739 35.6207 117.715 35.5451 117.676 35.4768C117.637 35.4085 117.584 35.349 117.521 35.3019C117.58 35.2355 117.616 35.1521 117.625 35.0637C117.634 34.9753 117.615 34.8864 117.57 34.8096C117.525 34.7328 117.458 34.6721 117.376 34.6361C117.295 34.6 117.205 34.5905 117.118 34.6089C116.488 34.7286 116.097 35.535 115.77 36.0138C115.524 36.3666 115.297 36.732 115.083 37.0974C115.045 36.5682 114.969 36.0327 114.932 35.535C114.894 35.0373 114.119 35.0058 114.119 35.535C114.163 36.3327 114.08 37.1322 113.873 37.9038C113.793 37.9434 113.721 37.9967 113.659 38.0613C111.373 40.4588 108.51 42.229 105.343 43.2021C105.185 43.2553 105.048 43.3589 104.955 43.4971C104.861 43.6354 104.815 43.8006 104.824 43.9673C104.834 44.134 104.898 44.2931 105.006 44.4201C105.115 44.547 105.262 44.6349 105.425 44.67C105.436 44.8235 105.494 44.9699 105.591 45.0893C105.688 45.2088 105.819 45.2956 105.967 45.3378C105.99 45.4554 106.038 45.5667 106.108 45.6644C106.177 45.7622 106.267 45.8441 106.37 45.9048L105.834 46.1379C104.965 46.5033 105.349 47.9397 106.231 47.5743C109.552 46.1868 112.468 43.9803 114.705 41.1609C114.963 40.9152 115.215 40.6695 115.467 40.4112C115.858 40.0143 117.748 38.118 117.282 37.3053C117.42 37.0218 117.691 36.8076 117.552 36.4422Z" fill="#FBB5AD"/>
<path d="M104.448 27.6096C103.56 27.9624 102.873 29.8776 102.949 30.2808L103.648 29.928L103.774 29.7894C103.899 29.0356 104.126 28.3022 104.448 27.6096Z" fill="#FBB5AD"/>
<path d="M104.568 29.1657C104.52 29.1318 104.467 29.1062 104.41 29.0901L104.354 29.0397C104.007 28.7688 103.472 29.1216 103.157 29.2917C102.754 29.5042 102.374 29.7575 102.023 30.0477C101.863 30.2661 101.749 30.5148 101.689 30.7785C101.557 31.0935 101.424 31.4085 101.273 31.7172C100.966 32.3681 100.619 32.9994 100.234 33.6072C99.4812 34.7844 98.5931 35.8692 97.5876 36.8391C97.1214 37.2927 97.8333 37.9983 98.2995 37.5447L98.6334 37.2108C98.7035 37.2572 98.7856 37.2819 98.8696 37.2819C98.9536 37.2819 99.0358 37.2572 99.1059 37.2108C99.1885 37.1541 99.2664 37.0909 99.339 37.0218L99.4461 36.9336C99.4758 37.0106 99.5241 37.0789 99.5867 37.1326C99.6493 37.1862 99.7243 37.2234 99.8049 37.2409C99.8855 37.2584 99.9691 37.2556 100.048 37.2328C100.128 37.2099 100.2 37.1677 100.259 37.11L100.599 36.7509C100.707 36.7105 100.796 36.629 100.845 36.5241C100.845 36.5241 100.895 37.2108 100.908 37.1919C101.456 36.6123 102.105 35.0058 102.653 34.0419C102.649 33.9976 102.66 33.9533 102.684 33.9159C103.014 33.3436 103.161 32.6842 103.106 32.0259C103.105 31.5738 103.145 31.1225 103.226 30.6777L104.121 29.9847C104.335 29.8209 104.568 29.5752 104.524 29.3547C104.55 29.2951 104.565 29.2309 104.568 29.1657Z" fill="#FBB5AD"/>
<path d="M107.901 41.7909C104.719 42.7233 104.171 42.3705 102.665 42.3201C101.16 42.2697 99.5594 40.1592 99.5594 40.1592C99.5594 40.1592 99.1814 35.4405 96.3653 39.1323C94.2674 41.8917 93.461 49.8801 93.2153 53.7483C94.3256 54.5109 95.6153 54.9713 96.9575 55.0839C97.8216 55.2286 98.696 55.3024 99.572 55.3044C100.111 55.3005 100.643 55.1847 101.134 54.9642L102.628 48.0342C105.028 48.1643 107.402 47.4831 109.369 46.1001L107.901 41.7909Z" fill="#68E1FD"/>
<path d="M101.04 36.1146C101.04 36.1146 103.088 40.0458 101.04 41.1546C98.9926 42.2634 97.4302 40.4301 97.2601 39.9576C97.1574 39.4365 97.1834 38.8981 97.3359 38.3893C97.4884 37.8805 97.7629 37.4167 98.1353 37.038C98.5078 36.6593 98.9671 36.3772 99.4733 36.2163C99.9795 36.0554 100.517 36.0205 101.04 36.1146Z" fill="#FBB5AD"/>
<path d="M101.217 35.5287C100.7 35.2001 100.118 34.9872 99.5113 34.9046C98.9045 34.8219 98.287 34.8715 97.7012 35.0499C96.6696 35.2386 95.7202 35.7375 94.9796 36.48C94.7178 36.3033 94.413 36.201 94.0976 36.1839C93.7155 36.1553 93.3342 36.2484 93.0082 36.4498C92.6823 36.6513 92.4285 36.9508 92.2832 37.3053C92.1645 37.6389 92.1621 38.0029 92.2765 38.3381C92.3909 38.6732 92.6153 38.9598 92.9132 39.1512C93.3752 39.3933 93.9141 39.4431 94.4126 39.2898V39.3843C94.4819 40.1277 93.7826 40.4994 93.5054 41.1294C93.3714 41.4164 93.3338 41.7391 93.3983 42.0492C93.4676 42.3579 93.7889 42.6792 93.7826 43.0068C93.7261 43.2403 93.6137 43.4565 93.455 43.6368C93.3108 43.851 93.1923 44.0815 93.1022 44.3235C94.6394 45.0344 96.3738 45.1968 98.0162 44.7834C99.7743 44.4756 101.385 43.607 102.609 42.3075C102.538 42.1462 102.432 42.0022 102.3 41.8854C102.026 41.7009 101.732 41.5467 101.425 41.4255C100.99 41.1735 101.425 40.4112 101.425 40.0017C101.425 39.2961 100.883 39 100.297 38.7417C99.8747 38.5653 99.8558 38.307 99.8495 37.8786C99.8114 37.538 99.882 37.194 100.051 36.8958C100.178 36.9141 100.307 36.8874 100.417 36.8202C100.636 36.6881 100.871 36.5844 101.116 36.5115C101.239 36.4673 101.34 36.3764 101.396 36.2585C101.453 36.1406 101.461 36.0052 101.418 35.8815C101.418 35.8103 101.4 35.7402 101.364 35.6783C101.329 35.6165 101.278 35.5649 101.217 35.5287Z" fill="#56403D"/>
<path d="M99.6666 37.0974C100.323 36.9538 100.958 36.7273 101.557 36.4233C101.557 36.3603 101.752 33.9033 97.4112 34.7601C93.0705 35.6169 95.1306 40.8018 95.1306 40.8018" fill="#56403D"/>
<path d="M140.825 42.6603L171.203 60.5397C171.515 60.7256 171.771 60.9923 171.944 61.3117C172.117 61.631 172.201 61.9912 172.186 62.3541L171.134 90.0174C171.125 90.3604 171.028 90.6953 170.85 90.9891C170.673 91.283 170.423 91.5257 170.123 91.6934C169.824 91.8612 169.486 91.9482 169.143 91.946C168.8 91.9437 168.464 91.8523 168.167 91.6806L138.84 74.5824C138.536 74.404 138.284 74.1489 138.109 73.8427C137.935 73.5365 137.843 73.1899 137.845 72.8373V44.3991C137.841 44.0486 137.93 43.7033 138.103 43.3984C138.275 43.0934 138.526 42.8397 138.829 42.663C139.132 42.4864 139.476 42.3931 139.826 42.3926C140.177 42.3921 140.521 42.4845 140.825 42.6603Z" stroke="#56403D" stroke-width="0.63" stroke-miterlimit="10" stroke-linecap="round" stroke-dasharray="1.92 3.19"/>
<path d="M159.555 34.8672C158.339 34.3065 155.453 32.4039 151.812 34.1553C148.17 35.9067 144.718 39.1449 148.479 48.6831C149.694 49.1491 151.036 49.1625 152.259 48.7209C152.259 48.7209 151.484 40.3734 152.656 39.4032L164.891 46.2009C165.026 47.79 164.695 49.3841 163.937 50.7875C163.179 52.1909 162.029 53.3426 160.626 54.1011L163.996 57.1944C166.755 57.1503 172.816 48.3744 170.926 42.1374C169.036 35.9004 158.717 34.5459 158.717 34.5459" fill="#6DE1FC"/>
<path d="M159.555 34.8672C158.339 34.3065 155.453 32.4039 151.812 34.1553C148.17 35.9067 144.718 39.1449 148.479 48.6831C149.694 49.1491 151.036 49.1625 152.259 48.7209C152.259 48.7209 151.484 40.3734 152.656 39.4032L164.891 46.2009C165.026 47.79 164.695 49.3841 163.937 50.7875C163.179 52.1909 162.029 53.3426 160.626 54.1011L163.996 57.1944C166.755 57.1503 172.816 48.3744 170.926 42.1374C169.036 35.9004 158.717 34.5459 158.717 34.5459" fill="#BE6B3D"/>
<path d="M163.454 34.3506C162.623 35.2704 161.029 34.8546 159.977 34.6152C158.717 34.3254 157.236 33.5505 157.349 32.0322C157.349 31.8054 157.009 31.8054 156.99 32.0322C156.871 33.6135 158.313 34.5522 159.68 34.9113C160.896 35.2137 162.736 35.6736 163.706 34.6026C163.857 34.4199 163.605 34.1805 163.454 34.3506Z" fill="#009245"/>
<path d="M156.65 31.0746C156.65 31.0746 156.65 38.8173 159.491 39.3213C162.641 39.8757 164.368 36.3288 164.368 36.3288C164.368 36.3288 164.771 29.487 161.665 28.8885C158.559 28.29 156.745 30.0855 156.65 31.0746Z" fill="#FBB5AD"/>
<path d="M159.038 36.31C158.965 36.3141 158.892 36.3034 158.824 36.2785C158.884 35.5559 158.981 34.8368 159.114 34.1239C159.121 34.0722 159.107 34.0198 159.076 33.9778C159.046 33.9357 159 33.9072 158.948 33.8982C158.897 33.8892 158.844 33.9005 158.801 33.9297C158.758 33.9588 158.728 34.0036 158.717 34.0546C158.573 34.8171 158.469 35.5868 158.408 36.3604C158.402 36.4043 158.409 36.4492 158.429 36.4887C158.45 36.5282 158.482 36.5604 158.521 36.5809C158.687 36.6781 158.877 36.7261 159.069 36.7195C159.334 36.688 159.303 36.31 159.038 36.31Z" fill="#56403D"/>
<path d="M160.348 36.4548C160.236 36.7277 160.022 36.9461 159.751 37.0637C159.481 37.1814 159.175 37.1889 158.899 37.0848C158.735 37.0281 158.666 37.2864 158.83 37.3431C159.16 37.4639 159.524 37.4557 159.848 37.3202C160.173 37.1848 160.435 36.932 160.581 36.6123C160.657 36.4359 160.424 36.3099 160.348 36.4548Z" fill="#56403D"/>
<path d="M159.996 35.3586C159.942 35.3586 159.891 35.3799 159.853 35.4177C159.815 35.4555 159.794 35.5068 159.794 35.5602C159.794 35.6137 159.815 35.665 159.853 35.7028C159.891 35.7406 159.942 35.7618 159.996 35.7618C160.049 35.7618 160.1 35.7406 160.138 35.7028C160.176 35.665 160.197 35.6137 160.197 35.5602C160.197 35.5068 160.176 35.4555 160.138 35.4177C160.1 35.3799 160.049 35.3586 159.996 35.3586Z" fill="#56403D"/>
<path d="M157.495 34.8168C157.441 34.8168 157.39 34.8381 157.352 34.8759C157.314 34.9137 157.293 34.965 157.293 35.0184C157.293 35.0719 157.314 35.1232 157.352 35.161C157.39 35.1988 157.441 35.22 157.495 35.22C157.548 35.22 157.599 35.1988 157.637 35.161C157.675 35.1232 157.696 35.0719 157.696 35.0184C157.696 34.965 157.675 34.9137 157.637 34.8759C157.599 34.8381 157.548 34.8168 157.495 34.8168Z" fill="#56403D"/>
<path d="M162.15 35.5602C162.15 35.5602 162.9 32.5866 163.731 33.5694C164.563 34.5522 162.383 36.6879 162.383 36.6879" fill="#FBB5AD"/>
<path d="M162.925 27.9246C162.925 27.9246 165.697 28.2207 166.503 30.4446C167.31 32.6685 165.243 37.0407 163.75 37.7274L165.552 33.8718L165.464 31.2699L162.925 27.9246Z" fill="#5C2E2E"/>
<path d="M166.459 31.4211C166.233 29.8776 165.199 29.1279 163.87 28.3341L163.536 28.1577C163.803 27.9489 164.019 27.6817 164.166 27.3765C164.184 27.3458 164.193 27.3108 164.193 27.2753C164.193 27.2397 164.184 27.2049 164.166 27.1742C164.148 27.1434 164.122 27.118 164.091 27.1005C164.06 27.0829 164.025 27.0738 163.99 27.0741C163.815 27.0811 163.643 27.1245 163.486 27.2015C163.329 27.2785 163.189 27.3875 163.076 27.5214C162.918 27.2029 162.705 26.9149 162.446 26.6709C162.421 26.6469 162.389 26.6298 162.355 26.6211C162.321 26.6125 162.286 26.6125 162.252 26.6213C162.218 26.6301 162.187 26.6474 162.161 26.6715C162.136 26.6956 162.117 26.7257 162.106 26.7591C162.045 26.9087 162.018 27.0698 162.027 27.231C162.036 27.3922 162.08 27.5494 162.156 27.6915C160.762 27.4003 159.31 27.6241 158.068 28.3215C157.608 28.5804 157.216 28.9428 156.921 29.3799C156.543 29.34 156.16 29.4077 155.819 29.5752C155.452 29.7458 155.152 30.0314 154.963 30.3886C154.774 30.7457 154.708 31.1548 154.773 31.5534C154.901 31.9645 155.185 32.309 155.565 32.5128C155.944 32.7166 156.388 32.7635 156.801 32.6433C157.232 32.5635 157.636 32.3749 157.973 32.0952C157.721 32.5173 157.595 33.0591 158.414 33.2481C159.838 33.5757 160.512 32.7252 160.6 33.4371C160.676 34.0167 161.476 34.338 162.049 34.3506C162.093 34.4388 162.201 34.6719 162.327 34.9806C162.613 34.8859 162.919 34.8685 163.215 34.9302C163.238 34.9048 163.266 34.8852 163.298 34.873C163.33 34.8607 163.364 34.8563 163.398 34.86C163.432 34.8637 163.464 34.8754 163.493 34.8942C163.521 34.913 163.545 34.9383 163.561 34.968C164.053 35.8122 163.939 36.732 163.75 37.7085C164.528 37.0518 165.17 36.2493 165.64 35.346C166.292 34.1462 166.577 32.7814 166.459 31.4211ZM162.427 27.2694L162.484 27.3576C162.481 27.3785 162.481 27.3998 162.484 27.4206C162.484 27.4836 162.534 27.5529 162.56 27.6159C162.487 27.5135 162.441 27.3943 162.427 27.2694Z" fill="#5C2E2E"/>
<path d="M177.755 68.4399L195.83 78.9798C195.997 79.0777 196.135 79.2176 196.232 79.3856C196.328 79.5536 196.378 79.7439 196.378 79.9374C196.378 80.1328 196.327 80.3247 196.229 80.4938C196.131 80.6628 195.99 80.8031 195.821 80.9003C195.651 80.9975 195.459 81.0482 195.264 81.0472C195.069 81.0463 194.877 80.9938 194.708 80.895L176.64 70.4181C176.472 70.321 176.332 70.1815 176.235 70.0134C176.138 69.8454 176.086 69.6547 176.086 69.4605V69.3975C176.086 69.2022 176.137 69.0103 176.235 68.8412C176.333 68.6721 176.473 68.5319 176.643 68.4347C176.812 68.3375 177.004 68.2868 177.2 68.2877C177.395 68.2887 177.587 68.3412 177.755 68.4399Z" fill="#FDC49A"/>
<path d="M177.755 74.1099L195.83 84.6498C195.997 84.7477 196.135 84.8876 196.232 85.0556C196.328 85.2236 196.378 85.4138 196.378 85.6074C196.378 85.8027 196.327 85.9947 196.229 86.1637C196.131 86.3328 195.99 86.473 195.821 86.5702C195.651 86.6674 195.459 86.7181 195.264 86.7172C195.069 86.7163 194.877 86.6638 194.708 86.565L176.64 76.1196C176.472 76.0225 176.332 75.8829 176.235 75.7149C176.138 75.5468 176.086 75.3562 176.086 75.162V75.099C176.08 74.901 176.127 74.7051 176.223 74.5315C176.318 74.358 176.458 74.2132 176.629 74.1122C176.799 74.0113 176.994 73.9578 177.192 73.9574C177.39 73.957 177.584 74.0096 177.755 74.1099Z" fill="#FDC49A"/>
<path d="M177.755 79.8367L195.83 90.3766C195.997 90.4745 196.135 90.6143 196.232 90.7823C196.328 90.9503 196.378 91.1406 196.378 91.3342C196.378 91.5295 196.327 91.7214 196.229 91.8905C196.131 92.0596 195.99 92.1998 195.821 92.297C195.651 92.3942 195.459 92.4449 195.264 92.444C195.069 92.4431 194.877 92.3905 194.708 92.2918L176.64 81.8149C176.472 81.7178 176.332 81.5782 176.235 81.4102C176.138 81.2421 176.086 81.0515 176.086 80.8573V80.7943C176.086 80.5989 176.137 80.407 176.235 80.2379C176.333 80.0689 176.473 79.9286 176.643 79.8314C176.812 79.7342 177.004 79.6835 177.2 79.6845C177.395 79.6854 177.587 79.7379 177.755 79.8367Z" fill="#FDC49A"/>
<path d="M177.755 85.5318L195.83 96.0717C195.997 96.1696 196.135 96.3095 196.232 96.4775C196.328 96.6455 196.378 96.8357 196.378 97.0293C196.378 97.2247 196.327 97.4166 196.229 97.5857C196.131 97.7547 195.99 97.8949 195.821 97.9921C195.651 98.0893 195.459 98.14 195.264 98.1391C195.069 98.1382 194.877 98.0857 194.709 97.9869L176.64 87.5163C176.472 87.4192 176.332 87.2797 176.235 87.1116C176.138 86.9436 176.086 86.7529 176.086 86.5587V86.4957C176.084 86.2998 176.135 86.1071 176.232 85.9372C176.33 85.7672 176.47 85.6261 176.64 85.5281C176.81 85.4302 177.002 85.3789 177.198 85.3796C177.394 85.3802 177.586 85.4328 177.755 85.5318Z" fill="#FAEDD4"/>
<path d="M132.382 48.7335V66.9783L118.264 58.8891V40.8018L132.382 48.7335Z" fill="#E35541"/>
<path d="M119.896 58.8891V63.3495L123.493 60.2184L119.896 58.8891Z" fill="#E35541"/>
<path d="M123.833 50.5794L120.683 52.5198C120.586 52.5776 120.515 52.6717 120.487 52.7815C120.458 52.8914 120.475 53.008 120.532 53.1057L122.989 56.451C123.311 56.892 124.054 56.451 123.726 56.0226L121.238 52.6899L121.087 53.2758L124.237 51.3354C124.703 51.0519 124.274 50.3085 123.808 50.5983L123.833 50.5794Z" fill="white"/>
<path d="M125.969 52.3056L128.584 56.0037L128.735 55.4178L125.534 57.018C125.043 57.2637 125.478 58.0008 125.963 57.7551L129.163 56.1549C129.261 56.0972 129.332 56.0031 129.36 55.8932C129.388 55.7834 129.372 55.6668 129.314 55.569L126.7 51.8709C126.385 51.4236 125.642 51.8709 125.963 52.2993L125.969 52.3056Z" fill="white"/>
<path d="M195.773 72.6484C196.333 72.6484 196.787 72.1548 196.787 71.5459C196.787 70.937 196.333 70.4434 195.773 70.4434C195.213 70.4434 194.759 70.937 194.759 71.5459C194.759 72.1548 195.213 72.6484 195.773 72.6484Z" fill="#155A93"/>
<path d="M192.535 70.9914C193.095 70.9914 193.549 70.4978 193.549 69.8889C193.549 69.28 193.095 68.7864 192.535 68.7864C191.975 68.7864 191.521 69.28 191.521 69.8889C191.521 70.4978 191.975 70.9914 192.535 70.9914Z" fill="#659FE4"/>
<path d="M189.297 69.3849C189.857 69.3849 190.311 68.8913 190.311 68.2824C190.311 67.6735 189.857 67.1799 189.297 67.1799C188.737 67.1799 188.282 67.6735 188.282 68.2824C188.282 68.8913 188.737 69.3849 189.297 69.3849Z" fill="#C5E9FF"/>
<path d="M88.7361 82.5519L110.925 95.133L119.014 90.975" stroke="white" stroke-width="0.63" stroke-miterlimit="10"/>
<path d="M110.855 95.3157V100.4" stroke="white" stroke-width="0.63" stroke-miterlimit="10"/>
<path d="M94.929 91.1199C94.4637 91.0347 94.0291 90.8283 93.669 90.5214C93.4448 90.1052 93.3526 89.6306 93.4044 89.1606C93.4044 88.7406 93.4044 88.3017 93.4044 87.8439C93.3798 87.8241 93.3598 87.7992 93.3456 87.7709C93.3315 87.7427 93.3236 87.7117 93.3225 87.6801C93.2983 87.3235 93.2983 86.9657 93.3225 86.6091L91.5207 86.4327C91.2091 87.5629 90.9589 88.7091 90.771 89.8662C90.8214 90.219 92.535 92.5626 93.4107 92.7201C94.2864 92.8776 96.7056 92.0901 96.9072 91.7814C96.252 91.5861 95.5842 91.3782 94.929 91.1199Z" fill="#FBB5AD"/>
<path d="M107.39 84.7191C106.366 84.7266 105.343 84.8215 104.335 85.0026C104.335 85.0026 103.988 82.993 104.039 82.8922L101.475 83.0686C101.475 83.0686 101.153 86.7981 101.153 87.2895C101.153 88.1904 102.275 88.4802 102.52 88.4424C102.697 88.3821 102.87 88.3105 103.037 88.2283C102.944 87.7635 102.895 87.291 102.892 86.817C102.892 86.6028 102.949 86.4454 103.157 86.3698C103.65 86.3059 104.151 86.351 104.625 86.502C105.085 86.5902 105.538 86.6973 105.998 86.7792C106.71 86.4729 107.364 86.0467 107.932 85.5192C108.096 85.0215 108.304 84.9018 107.39 84.7191Z" fill="#FBB5AD"/>
<path d="M108.247 84.8829L108.184 84.8136C107.989 84.6246 107.472 84.6435 107.233 84.6309C106.256 84.6374 105.282 84.7622 104.335 85.0026C104.335 85.0026 106.66 84.6876 106.748 85.1034C106.785 85.2702 106.784 85.4434 106.744 85.6095C106.703 85.7757 106.625 85.9302 106.515 86.061C105.545 86.9241 104.026 85.9728 103.081 85.5633L101.324 84.8073L101.21 86.2374C101.149 86.8912 101.149 87.5492 101.21 88.203C101.33 88.4046 102.369 88.9527 102.59 88.833C102.81 88.7133 103.491 88.3101 103.491 88.3101L103.352 86.5839C103.352 86.5839 104.801 87.2139 105.488 87.0375C106.011 86.9115 108.852 85.6893 108.247 84.8829Z" fill="#56403D"/>
<path d="M92.4407 89.9418C92.4407 89.9418 93.3857 92.8902 93.7007 93.0918C94.0157 93.2934 97.6697 92.1279 97.1279 91.4349C96.7814 90.9939 94.6079 91.0002 94.4 90.9435C94.4 90.9435 95.5529 91.3215 95.5529 91.5042C95.124 91.8847 94.5948 92.134 94.0283 92.2224C93.9527 92.0838 92.3777 89.5008 92.3777 89.5008L90.8972 88.9779L89.7002 91.6806L90.7334 92.1216C90.7334 92.1216 91.0484 92.9469 91.1555 92.9469C91.5101 92.4653 91.8281 91.9578 92.1068 91.4286C92.1747 91.8029 92.2957 92.1657 92.4659 92.5059C92.6108 92.613 93.8141 93.6021 94.3559 92.8461L93.3416 91.7058" fill="#56403D"/>
<path d="M89.7002 91.6806L89.8892 92.3548L91.1555 92.9469V91.6806L90.4247 91.4286" fill="#56403D"/>
<path d="M99.9753 84.0828C101.088 84.3422 102.246 84.3401 103.357 84.0767C104.469 83.8132 105.504 83.2956 106.382 82.5645C106.42 78.7845 106.773 75.3384 106.66 71.5458C106.477 65.3529 105.576 59.2734 101.229 54.4413L93.3162 53.2254C90.1032 59.3364 89.448 87.2895 89.448 87.2895C89.448 87.2895 93.48 89.8599 96.5481 88.5999L97.7388 65.2899C97.7388 65.2899 99.8367 67.7721 100.215 69.1581C100.492 70.2039 99.9249 79.4019 99.9753 84.0828Z" fill="#999A1C"/>
<path d="M66.4847 75.8866C74.1985 75.8866 80.4518 72.7952 80.4518 68.9818C80.4518 65.1683 74.1985 62.077 66.4847 62.077C58.7709 62.077 52.5176 65.1683 52.5176 68.9818C52.5176 72.7952 58.7709 75.8866 66.4847 75.8866Z" fill="#6DE1FC"/>
<path d="M66.4847 75.8866C74.1985 75.8866 80.4518 72.7952 80.4518 68.9818C80.4518 65.1683 74.1985 62.077 66.4847 62.077C58.7709 62.077 52.5176 65.1683 52.5176 68.9818C52.5176 72.7952 58.7709 75.8866 66.4847 75.8866Z" fill="#663535"/>
<path d="M213.665 135.466L202.375 142.15C202.375 142.15 205.872 148.286 214.497 151.909L227.67 144.846" fill="url(#paint3_linear_123_492)"/>
<path d="M223.084 145.376C228.866 145.376 233.554 142.073 233.554 137.998C233.554 133.924 228.866 130.621 223.084 130.621C217.301 130.621 212.613 133.924 212.613 137.998C212.613 142.073 217.301 145.376 223.084 145.376Z" fill="#68E1FD"/>
<path d="M223.077 136.858C227.409 136.858 230.921 135.419 230.921 133.645C230.921 131.87 227.409 130.432 223.077 130.432C218.746 130.432 215.234 131.87 215.234 133.645C215.234 135.419 218.746 136.858 223.077 136.858Z" fill="#974C26"/>
<path d="M222.787 128.29C222.787 126.841 222.737 125.392 222.624 123.949C222.594 123.575 222.561 123.202 222.523 122.828L222.441 122.091C222.409 121.877 222.327 121.316 222.327 121.341C222.277 121.047 222.227 120.753 222.176 120.459C221.319 115.543 219.409 110.871 216.576 106.763C215.511 109.301 214.982 112.031 215.019 114.783C215.019 115.577 215.082 116.37 215.152 117.164C215.152 117.378 215.152 117.467 215.152 117.498C215.152 117.53 215.152 117.448 215.183 117.63C215.246 118.021 215.322 118.412 215.397 118.796C215.713 120.273 216.134 121.726 216.657 123.143C217.123 124.445 217.689 125.709 218.352 126.923C219.064 128.29 219.839 129.626 220.671 130.923C221.301 131.938 221.931 132.851 222.561 133.714C222.699 131.912 222.787 130.098 222.787 128.29ZM218.667 112.004C218.695 111.817 218.683 111.626 218.629 111.444C218.831 111.65 219.026 111.86 219.215 112.074C219.037 112.022 218.852 111.999 218.667 112.004Z" fill="#999A1C"/>
<path d="M225.49 129.405C226.278 128.189 227.015 126.942 227.701 125.663C227.878 125.331 228.052 124.997 228.224 124.661L228.552 123.993L228.861 123.3C228.978 123.027 229.094 122.752 229.207 122.475C231.143 117.877 232.06 112.915 231.897 107.928C229.621 109.485 227.691 111.494 226.227 113.831C225.805 114.506 225.421 115.199 225.049 115.904L224.892 116.2C224.892 116.2 224.892 116.162 224.848 116.333C224.69 116.698 224.539 117.063 224.4 117.429C223.863 118.839 223.427 120.285 223.096 121.757C222.779 123.105 222.568 124.477 222.466 125.858C222.321 127.395 222.258 128.939 222.252 130.476C222.252 131.679 222.252 132.782 222.328 133.84C223.455 132.41 224.52 130.93 225.49 129.405ZM230.82 113.479C230.945 113.336 231.037 113.169 231.091 112.987C231.15 113.269 231.2 113.552 231.242 113.838C231.121 113.697 230.978 113.576 230.82 113.479Z" fill="#999A1C"/>
<path d="M225.434 133.015C226.248 132.595 227.048 132.16 227.834 131.711L228.464 131.339L228.854 131.087L229.245 130.816L229.699 130.482C232.228 128.626 234.325 126.245 235.847 123.502C234.12 123.613 232.435 124.078 230.896 124.869C230.448 125.096 230.02 125.348 229.592 125.606L229.409 125.713C229.409 125.713 229.409 125.713 229.346 125.77C229.144 125.915 228.943 126.066 228.747 126.217C228.002 126.797 227.299 127.428 226.643 128.107C226.037 128.733 225.481 129.405 224.98 130.117C224.407 130.898 223.871 131.711 223.373 132.542C222.983 133.172 222.643 133.802 222.328 134.382C223.367 133.96 224.407 133.525 225.434 133.015ZM233.453 126.142C233.568 126.106 233.673 126.046 233.762 125.965C233.703 126.137 233.64 126.308 233.573 126.476C233.551 126.359 233.511 126.246 233.453 126.142Z" fill="#999A1C"/>
<path d="M222.787 128.29C222.787 126.841 222.737 125.392 222.624 123.949C222.594 123.575 222.561 123.202 222.523 122.828L222.441 122.091C222.409 121.877 222.327 121.316 222.327 121.341C222.277 121.047 222.227 120.753 222.176 120.459C221.319 115.543 219.409 110.871 216.576 106.763C215.511 109.301 214.982 112.031 215.019 114.783C215.019 115.577 215.082 116.37 215.152 117.164C215.152 117.378 215.152 117.467 215.152 117.498C215.152 117.53 215.152 117.448 215.183 117.63C215.246 118.021 215.322 118.412 215.397 118.796C215.713 120.273 216.134 121.726 216.657 123.143C217.123 124.445 217.689 125.709 218.352 126.923C219.064 128.29 219.839 129.626 220.671 130.923C221.301 131.938 221.931 132.851 222.561 133.714C222.699 131.912 222.787 130.098 222.787 128.29ZM218.667 112.004C218.695 111.817 218.683 111.626 218.629 111.444C218.831 111.65 219.026 111.86 219.215 112.074C219.037 112.022 218.852 111.999 218.667 112.004Z" fill="#999A1C"/>
<path d="M225.49 129.405C226.278 128.189 227.015 126.942 227.701 125.663C227.878 125.331 228.052 124.997 228.224 124.661L228.552 123.993L228.861 123.3C228.978 123.027 229.094 122.752 229.207 122.475C231.143 117.877 232.06 112.915 231.897 107.928C229.621 109.485 227.691 111.494 226.227 113.831C225.805 114.506 225.421 115.199 225.049 115.904L224.892 116.2C224.892 116.2 224.892 116.162 224.848 116.333C224.69 116.698 224.539 117.063 224.4 117.429C223.863 118.839 223.427 120.285 223.096 121.757C222.779 123.105 222.568 124.477 222.466 125.858C222.321 127.395 222.258 128.939 222.252 130.476C222.252 131.679 222.252 132.782 222.328 133.84C223.455 132.41 224.52 130.93 225.49 129.405ZM230.82 113.479C230.945 113.336 231.037 113.169 231.091 112.987C231.15 113.269 231.2 113.552 231.242 113.838C231.121 113.697 230.978 113.576 230.82 113.479Z" fill="#999A1C"/>
<path d="M225.434 133.015C226.248 132.595 227.048 132.16 227.834 131.711L228.464 131.339L228.854 131.087L229.245 130.816L229.699 130.482C232.228 128.626 234.325 126.245 235.847 123.502C234.12 123.613 232.435 124.078 230.896 124.869C230.448 125.096 230.02 125.348 229.592 125.606L229.409 125.713C229.409 125.713 229.409 125.713 229.346 125.77C229.144 125.915 228.943 126.066 228.747 126.217C228.002 126.797 227.299 127.428 226.643 128.107C226.037 128.733 225.481 129.405 224.98 130.117C224.407 130.898 223.871 131.711 223.373 132.542C222.983 133.172 222.643 133.802 222.328 134.382C223.367 133.96 224.407 133.525 225.434 133.015ZM233.453 126.142C233.568 126.106 233.673 126.046 233.762 125.965C233.703 126.137 233.64 126.308 233.573 126.476C233.551 126.359 233.511 126.246 233.453 126.142Z" fill="#999A1C"/>
</g>
<defs>
<filter id="filter0_d_123_492" x="0.92041" y="0" width="271.159" height="212.518" filterUnits="userSpaceOnUse" color-interpolation-filters="sRGB">
<feFlood flood-opacity="0" result="BackgroundImageFix"/>
<feColorMatrix in="SourceAlpha" type="matrix" values="0 0 0 0 0 0 0 0 0 0 0 0 0 0 0 0 0 0 127 0" result="hardAlpha"/>
<feOffset dy="7"/>
<feGaussianBlur stdDeviation="8.5"/>
<feComposite in2="hardAlpha" operator="out"/>
<feColorMatrix type="matrix" values="0 0 0 0 0 0 0 0 0 0 0 0 0 0 0 0 0 0 0.25 0"/>
<feBlend mode="normal" in2="BackgroundImageFix" result="effect1_dropShadow_123_492"/>
<feBlend mode="normal" in="SourceGraphic" in2="effect1_dropShadow_123_492" result="shape"/>
</filter>
<linearGradient id="paint0_linear_123_492" x1="64.6701" y1="85.9224" x2="53.475" y2="99.9084" gradientUnits="userSpaceOnUse">
<stop stop-color="#D4A397"/>
<stop offset="0.99" stop-color="#FFD6A9"/>
</linearGradient>
<linearGradient id="paint1_linear_123_492" x1="96.4601" y1="126.23" x2="93.1337" y2="131.875" gradientUnits="userSpaceOnUse">
<stop stop-color="#D4A397"/>
<stop offset="0.99" stop-color="#FFD6A9"/>
</linearGradient>
<linearGradient id="paint2_linear_123_492" x1="160.248" y1="153.484" x2="144.535" y2="166.273" gradientUnits="userSpaceOnUse">
<stop stop-color="#D4A397"/>
<stop offset="0.99" stop-color="#FFD6A9"/>
</linearGradient>
<linearGradient id="paint3_linear_123_492" x1="221.332" y1="136.568" x2="210.005" y2="148.992" gradientUnits="userSpaceOnUse">
<stop stop-color="#D4A397"/>
<stop offset="0.99" stop-color="#FFD6A9"/>
</linearGradient>
</defs>
</svg>
