<svg width="269" height="210" viewBox="0 0 269 210" fill="none" xmlns="http://www.w3.org/2000/svg">
<g filter="url(#filter0_d_123_627)">
<path d="M19.4077 100.944L109.927 48.2978C110.578 47.9223 111.316 47.7246 112.067 47.7246C112.818 47.7246 113.556 47.9223 114.206 48.2978L249.568 125.761C250.222 126.136 250.764 126.676 251.142 127.328C251.519 127.98 251.718 128.719 251.718 129.472C251.718 130.226 251.519 130.965 251.142 131.617C250.764 132.269 250.222 132.809 249.568 133.184L163.02 183.159C160.897 184.386 158.487 185.031 156.035 185.031C153.583 185.031 151.173 184.386 149.05 183.159L19.4211 108.346C18.7719 107.971 18.2326 107.432 17.8572 106.783C17.4819 106.134 17.2836 105.398 17.2822 104.649C17.2809 103.899 17.4765 103.162 17.8495 102.512C18.2226 101.862 18.7599 101.321 19.4077 100.944Z" fill="#007F68"/>
<path d="M67.6345 109.574V111.77L68.7426 113.132" fill="#ADCEE1"/>
<path d="M111.763 82.8343L68.8894 109.407C68.5003 109.653 68.1812 109.995 67.9631 110.4C67.7451 110.805 67.6354 111.26 67.6448 111.72C67.6542 112.18 67.7824 112.63 68.0168 113.026C68.2512 113.422 68.584 113.75 68.9829 113.98L134.051 150.786C134.96 151.301 135.989 151.567 137.034 151.559C138.079 151.551 139.104 151.268 140.005 150.739L182.692 125.648C185.795 123.098 185.562 118.305 182.692 118.098L117.997 82.7208C117.046 82.1717 115.963 81.8921 114.864 81.9121C113.766 81.9321 112.694 82.2509 111.763 82.8343Z" fill="#88D3D8"/>
<path d="M111.763 81.0052L68.8828 107.578C68.4937 107.824 68.1746 108.166 67.9566 108.571C67.7385 108.976 67.6289 109.431 67.6383 109.891C67.6477 110.351 67.7758 110.801 68.0102 111.197C68.2447 111.593 68.5774 111.921 68.9763 112.151L134.044 148.957C134.954 149.471 135.982 149.738 137.028 149.73C138.073 149.722 139.097 149.439 139.998 148.91L182.685 123.819C183.177 123.522 183.584 123.102 183.866 122.602C184.149 122.101 184.297 121.536 184.297 120.962C184.297 120.387 184.149 119.822 183.866 119.322C183.584 118.821 183.177 118.402 182.685 118.105L117.971 80.8984C117.023 80.3534 115.945 80.0755 114.852 80.0943C113.759 80.1131 112.691 80.4279 111.763 81.0052Z" fill="white"/>
<path d="M113.518 77.3741C113.518 77.3741 131.327 19.8956 131.214 19.8956C131.1 19.8956 131.768 17.3391 134.952 18.7875L203.291 59.0111C203.291 59.0111 206.628 60.3461 205.961 63.4367C205.293 66.5272 188.525 119.68 188.525 119.68C188.175 120.185 187.673 120.566 187.092 120.766C186.512 120.967 185.882 120.977 185.295 120.795C183.212 120.127 115.094 80.5781 115.094 80.5781C114.474 80.3428 113.967 79.8812 113.675 79.2865C113.382 78.6918 113.326 78.0083 113.518 77.3741Z" fill="#68E1FD"/>
<path d="M132.349 24.0742L202.33 64.8718L187.818 113.606L116.936 74.0166L132.349 24.0742Z" fill="#172D51"/>
<path d="M109.14 87.0928L93.4602 96.8584C93.181 97.0307 92.9515 97.2728 92.7942 97.5608C92.637 97.8488 92.5575 98.1728 92.5636 98.5009C92.5696 98.8289 92.661 99.1498 92.8288 99.4318C92.9966 99.7138 93.2349 99.9472 93.5203 100.109L149.811 132.189C150.652 132.675 151.606 132.931 152.577 132.931C153.549 132.931 154.503 132.675 155.344 132.189C158.962 130.08 165.19 126.282 169.001 123.946C169.34 123.737 169.62 123.444 169.812 123.096C170.004 122.747 170.103 122.355 170.098 121.956C170.093 121.558 169.985 121.168 169.785 120.824C169.585 120.48 169.298 120.194 168.954 119.994C157.56 113.346 120.441 91.7587 112.297 87.0394C111.816 86.7609 111.267 86.6187 110.711 86.6281C110.155 86.6375 109.612 86.7981 109.14 87.0928Z" fill="#68E1FD"/>
<path d="M109.981 113.606L129.639 124.66C129.938 124.832 130.187 125.08 130.36 125.378C130.533 125.677 130.624 126.016 130.624 126.362C130.624 126.707 130.533 127.046 130.36 127.345C130.187 127.644 129.938 127.892 129.639 128.064L118.077 134.832C117.681 135.062 117.231 135.182 116.773 135.182C116.314 135.182 115.864 135.062 115.468 134.832L95.3825 123.358C95.1314 123.214 94.9228 123.007 94.7777 122.757C94.6326 122.506 94.5562 122.222 94.5562 121.933C94.5562 121.644 94.6326 121.36 94.7777 121.109C94.9228 120.859 95.1314 120.652 95.3825 120.508L107.397 113.599C107.792 113.376 108.237 113.259 108.69 113.261C109.143 113.262 109.588 113.381 109.981 113.606Z" fill="#68E1FD"/>
<path opacity="0.1" d="M109.14 87.0928L93.4602 96.8584C93.181 97.0307 92.9515 97.2728 92.7942 97.5608C92.637 97.8488 92.5575 98.1728 92.5636 98.5009C92.5696 98.8289 92.661 99.1498 92.8288 99.4318C92.9966 99.7138 93.2349 99.9472 93.5203 100.109L149.811 132.189C150.652 132.675 151.606 132.931 152.577 132.931C153.549 132.931 154.503 132.675 155.344 132.189C158.962 130.08 165.19 126.282 169.001 123.946C169.34 123.737 169.62 123.444 169.812 123.096C170.004 122.747 170.103 122.355 170.098 121.956C170.093 121.558 169.985 121.168 169.785 120.824C169.585 120.48 169.298 120.194 168.954 119.994C157.56 113.346 120.441 91.7587 112.297 87.0394C111.816 86.7609 111.267 86.6187 110.711 86.6281C110.155 86.6375 109.612 86.7981 109.14 87.0928Z" fill="#053855"/>
<path opacity="0.1" d="M109.981 113.606L129.639 124.66C129.938 124.832 130.187 125.08 130.36 125.378C130.533 125.677 130.624 126.016 130.624 126.362C130.624 126.707 130.533 127.046 130.36 127.345C130.187 127.644 129.938 127.892 129.639 128.064L118.077 134.832C117.681 135.062 117.231 135.182 116.773 135.182C116.314 135.182 115.864 135.062 115.468 134.832L95.3825 123.358C95.1314 123.214 94.9228 123.007 94.7777 122.757C94.6326 122.506 94.5562 122.222 94.5562 121.933C94.5562 121.644 94.6326 121.36 94.7777 121.109C94.9228 120.859 95.1314 120.652 95.3825 120.508L107.397 113.599C107.792 113.376 108.237 113.259 108.69 113.261C109.143 113.262 109.588 113.381 109.981 113.606Z" fill="#053855"/>
<path d="M95.3493 115.782C93.9501 111.869 93.1927 107.755 93.1065 103.6C92.8862 98.3068 94.8286 90.1566 102.578 90.6773C113.465 91.4115 117.33 103.266 123.164 106.51C128.998 109.754 142.181 104.388 143.049 109.341C143.917 114.293 141.567 120.141 138.143 123.739C129.906 132.416 113.565 131.749 103.86 126.088C99.906 123.753 96.8948 120.106 95.3493 115.782Z" fill="#FA6D90"/>
<path d="M133.791 124.653C116.008 127.049 94.408 115.502 93.5403 97.8729C93.1574 99.6959 92.9916 101.558 93.0463 103.42C93.1326 107.575 93.89 111.688 95.2891 115.602C96.835 119.929 99.8488 123.579 103.806 125.915C113.418 131.502 129.539 132.216 137.849 123.799C136.519 124.183 135.163 124.468 133.791 124.653Z" fill="#D64770"/>
<path d="M140.986 85.8112C140.987 85.511 140.913 85.2153 140.769 84.9515C140.626 84.6878 140.418 84.4646 140.165 84.3027C140.14 84.0529 140.05 83.8139 139.904 83.61C139.757 83.4061 139.56 83.2444 139.331 83.1412C139.299 83.1265 139.265 83.1153 139.231 83.1079C139.627 82.3486 139.949 81.5528 140.192 80.7316C140.183 80.5934 140.129 80.4619 140.039 80.3572C139.948 80.2524 139.826 80.1801 139.691 80.1514C139.555 80.1227 139.414 80.139 139.289 80.198C139.164 80.2569 139.061 80.3552 138.997 80.4779C138.625 81.5106 138.146 82.5017 137.569 83.4349C137.52 83.4095 137.469 83.3915 137.415 83.3815C136.687 83.2814 136.08 83.1012 135.793 83.9489C135.506 84.7966 135.359 85.5776 135.126 86.392C135.107 86.4597 135.103 86.5306 135.114 86.6001C135.124 86.6695 135.15 86.7358 135.189 86.7945C135.227 86.8533 135.278 86.9031 135.337 86.9408C135.396 86.9784 135.463 87.0029 135.533 87.0127C135.581 87.1539 135.683 87.2706 135.817 87.3379C135.95 87.4052 136.104 87.4178 136.247 87.3732C136.279 87.4853 136.334 87.5897 136.407 87.6802L136.367 87.727C136.304 87.8113 136.265 87.9115 136.256 88.0164C136.246 88.1214 136.266 88.2269 136.314 88.3211C136.361 88.4154 136.433 88.4946 136.523 88.55C136.612 88.6054 136.716 88.6348 136.821 88.6348C136.374 88.9418 136.641 89.7695 137.221 89.5626C138.35 89.1554 139.938 88.8951 140.813 87.994C141.12 87.7246 141.311 87.3456 141.343 86.9379C141.376 86.5302 141.248 86.1259 140.986 85.8112Z" fill="#FFB5A9"/>
<path d="M137.575 87.5201C137.618 87.4376 137.644 87.347 137.65 87.2541C137.656 87.1613 137.642 87.0682 137.61 86.9808C137.578 86.8934 137.528 86.8137 137.464 86.7468C137.399 86.6799 137.321 86.6272 137.235 86.5922L137.341 86.4187C137.408 86.3011 137.437 86.166 137.425 86.0314C137.414 85.8968 137.361 85.7689 137.275 85.6648C137.189 85.5606 137.073 85.485 136.943 85.448C136.813 85.411 136.675 85.4143 136.547 85.4575C136.482 85.3746 136.397 85.3084 136.301 85.2644C136.205 85.2204 136.1 85.1998 135.995 85.2044C135.889 85.2089 135.786 85.2385 135.694 85.2906C135.602 85.3427 135.524 85.4159 135.466 85.5042C134.754 86.76 133.956 87.9645 133.076 89.1087C132.993 89.2128 132.942 89.3385 132.927 89.4709C132.913 89.6033 132.937 89.737 132.996 89.8563L132.822 90.1166C132.769 90.1926 132.734 90.2801 132.72 90.3721C132.706 90.4641 132.714 90.5581 132.743 90.6464C132.773 90.7347 132.822 90.8149 132.888 90.8806C132.954 90.9463 133.034 90.9955 133.123 91.0244C133.227 91.1715 133.381 91.2758 133.557 91.3181C133.37 91.7654 133.817 92.1525 134.258 92.1392C134.31 92.2163 134.379 92.2806 134.46 92.3273C134.541 92.374 134.631 92.4019 134.724 92.4089C134.817 92.416 134.91 92.402 134.997 92.368C135.084 92.334 135.162 92.2809 135.225 92.2126C136.307 91.1026 137.18 89.8071 137.802 88.3878C137.87 88.2392 137.885 88.0716 137.844 87.9134C137.802 87.7552 137.707 87.6162 137.575 87.5201Z" fill="#FFB5A9"/>
<path d="M132.248 109.447C134.999 106.911 138.062 103.266 136.127 100.369C132.923 95.5901 124.305 101.164 122.89 101.464C116.676 102.799 103.84 117.484 115.427 116.957C120.695 116.719 125.75 114.808 129.859 111.503C130.493 110.983 131.354 110.275 132.248 109.447Z" fill="#3E2928"/>
<path d="M132.162 109.341C132.242 109.082 132.415 108.863 132.649 108.727C133.744 108.109 134.939 107.689 136.18 107.485C136.369 107.44 136.567 107.444 136.754 107.498C136.942 107.552 137.112 107.653 137.248 107.792C137.735 103.193 136.113 100.349 136.113 100.349L131.801 109.694C131.928 109.581 132.035 109.461 132.162 109.341Z" fill="#3E2928"/>
<path d="M134.171 87.1796C134.022 87.1317 133.883 87.0546 133.764 86.9527L127.249 92.6531C125.835 90.4122 125.013 87.8491 124.859 85.2038C124.619 80.8317 116.235 80.0908 116.235 80.0908L119.827 94.9627C119.827 94.9627 122.223 100.97 126.281 101.464C129.452 101.865 136.007 95.263 138.67 91.4983C137.582 89.6427 136.294 87.8738 134.171 87.1796Z" fill="#00A99D"/>
<path d="M112.29 75.0646C109.307 77.6462 107.054 80.9651 105.755 84.69C103.453 91.0579 109.213 101.471 109.213 101.471L118.184 94.3821" fill="#006D62"/>
<path d="M105.235 109.788C105.172 111.052 105.486 112.307 106.136 113.393C106.968 114.708 108.226 115.698 109.7 116.196C111.537 116.819 113.478 117.08 115.414 116.964C119.419 116.703 122.87 114.848 125.787 112.291C125.233 105.249 123.244 100.336 121.549 97.9332L110.695 92.6933C110.762 92.6933 108.579 97.0588 108.479 97.2924C107.361 99.9018 106.498 102.613 105.902 105.389C105.541 106.831 105.317 108.304 105.235 109.788Z" fill="#3E2928"/>
<path d="M121.355 85.7377L109.874 85.2104L107.004 100.376C110.428 102.739 120.834 101.831 122.883 101.471C122.249 96.885 121.842 90.3368 121.355 85.7377Z" fill="#00A99D"/>
<path d="M121.469 79.1563C122.36 77.9326 122.997 76.5422 123.341 75.0675C123.685 73.5929 123.729 72.0642 123.471 70.5722C123.037 67.5418 121.362 65.0253 118.131 64.478C113.125 63.6369 109.487 67.8622 109.567 72.5881C109.607 75.2247 109.894 77.0069 107.952 78.1083C106.009 79.2097 104.614 82.1133 106.456 84.4362C108.299 86.7591 106.643 85.9247 105.408 87.994C104.174 90.0632 104.494 92.6665 107.03 93.601C109.567 94.5355 121.348 92.7799 122.43 91.6786C122.815 91.2389 123.013 90.6668 122.984 90.0832C122.707 88.6149 121.908 87.2965 120.734 86.3719C119.78 85.5676 118.993 84.5833 118.418 83.475C117.477 81.5326 120.36 80.5781 121.469 79.1563Z" fill="#F7931E"/>
<path d="M221.366 137.442L224.817 135.733L222.281 134.292L221.366 137.442Z" fill="#C46200"/>
<path d="M203.558 92.6665L207.743 90.5572L207.249 93.5476L204.646 94.3219" fill="#C46200"/>
<path d="M226.466 133.778L234.389 107.171C234.595 106.48 234.561 105.739 234.294 105.069C234.026 104.399 233.54 103.839 232.914 103.48L210.64 90.6974C210.211 90.4569 209.733 90.3183 209.242 90.2921C208.752 90.266 208.262 90.3531 207.81 90.5467C207.358 90.7402 206.957 91.0351 206.638 91.4085C206.318 91.7819 206.089 92.2237 205.967 92.6999L198.898 120.127C198.723 120.812 198.78 121.536 199.058 122.185C199.337 122.835 199.823 123.374 200.44 123.719L221.86 135.68C222.28 135.909 222.745 136.041 223.222 136.067C223.699 136.092 224.176 136.011 224.617 135.829C225.059 135.646 225.454 135.367 225.774 135.013C226.094 134.658 226.33 134.236 226.466 133.778Z" fill="#C46200"/>
<path d="M222.742 135.64L230.665 109.034C230.87 108.342 230.837 107.601 230.569 106.932C230.301 106.262 229.815 105.702 229.19 105.342L206.915 92.5597C206.487 92.3193 206.009 92.1806 205.518 92.1544C205.027 92.1283 204.537 92.2154 204.085 92.409C203.634 92.6025 203.232 92.8974 202.913 93.2708C202.593 93.6442 202.364 94.086 202.243 94.5622L195.174 121.99C194.999 122.675 195.055 123.398 195.334 124.048C195.613 124.697 196.099 125.236 196.716 125.581L218.136 137.543C218.555 137.771 219.021 137.903 219.498 137.929C219.975 137.955 220.451 137.873 220.893 137.691C221.334 137.509 221.73 137.23 222.049 136.875C222.369 136.52 222.606 136.098 222.742 135.64Z" fill="#F7931E"/>
<path d="M210.68 109.834L209.886 112.204L204.652 112.491L208.417 116.596L207.623 118.966L201.435 112.071L201.982 110.422L210.68 109.834Z" fill="white"/>
<path d="M218.236 113.032L224.417 119.934L223.869 121.576L215.178 122.17L215.973 119.794L221.199 119.507L217.441 115.408L218.236 113.032Z" fill="white"/>
<path d="M216.327 110.349L217.929 111.023L209.939 121.83L208.344 121.149L216.327 110.349Z" fill="white"/>
<path d="M153.675 45.1071V46.9027L138.67 38.1785V36.4296L153.675 45.1071Z" fill="#F7931E"/>
<path d="M196.869 70.0783L155.15 45.9682V47.7705L196.535 71.8005C196.649 71.2331 196.756 70.6257 196.869 70.0783Z" fill="#00A99D"/>
<path d="M195.868 75.3515L190.815 72.4278V74.3368L195.554 77.0936C195.679 76.5151 195.783 75.9344 195.868 75.3515Z" fill="#8CC63F"/>
<path d="M189.353 71.5668V73.4759L165.67 59.712V57.8764L189.353 71.5668Z" fill="#F7931E"/>
<path d="M164.175 57.0153V58.8442L148.683 49.8397V48.0574L164.175 57.0153Z" fill="#F15A24"/>
<path d="M147.194 47.1964V48.9719L138.67 44.0191V42.2702L147.194 47.1964Z" fill="#8CC63F"/>
<path d="M194.9 80.5648L154.69 57.3224V59.1246L194.533 82.2736C194.653 81.7062 194.78 81.1388 194.9 80.5648Z" fill="#00A99D"/>
<path d="M148.742 60.513V62.3086L133.737 53.591V51.8422L148.742 60.513Z" fill="#F7931E"/>
<path d="M191.943 85.4908L150.238 61.3807V63.183L191.623 87.213C191.723 86.6456 191.829 86.0649 191.943 85.4908Z" fill="#00A99D"/>
<path d="M190.969 90.764L185.916 87.8403V89.7494L190.655 92.5062C190.762 91.9277 190.866 91.3469 190.969 90.764Z" fill="#8CC63F"/>
<path d="M184.421 86.9794V88.8818L160.738 75.1179V73.2889L184.421 86.9794Z" fill="#F7931E"/>
<path d="M159.249 72.4279V74.2502L143.756 65.2523V63.4701L159.249 72.4279Z" fill="#F15A24"/>
<path d="M142.261 62.609V64.3846L133.737 59.4317V57.6829L142.261 62.609Z" fill="#8CC63F"/>
<path d="M189.967 95.9907L149.757 72.7484V74.5506L189.593 97.6995C189.727 97.1188 189.86 96.5514 189.967 95.9907Z" fill="#00A99D"/>
<path d="M127.483 49.2056L130.346 47.7905L128.244 46.589L127.483 49.2056Z" fill="#066D0A"/>
<path d="M112.677 11.9857L116.155 10.2302L115.748 12.7133L113.579 13.3608" fill="#066D0A"/>
<path d="M131.721 46.1618L138.31 24.0409C138.48 23.4655 138.451 22.8496 138.228 22.2926C138.005 21.7355 137.601 21.2697 137.081 20.9704L118.565 10.3504C118.209 10.1476 117.812 10.0294 117.403 10.0048C116.994 9.98025 116.585 10.05 116.208 10.2088C115.83 10.3675 115.494 10.6109 115.226 10.9202C114.958 11.2295 114.764 11.5964 114.66 11.9925L108.786 34.7943C108.64 35.3643 108.687 35.9665 108.919 36.5072C109.151 37.048 109.554 37.4971 110.068 37.7847L127.877 47.7305C128.225 47.9225 128.612 48.0342 129.01 48.0573C129.407 48.0804 129.805 48.0144 130.173 47.864C130.542 47.7136 130.872 47.4827 131.14 47.1882C131.408 46.8937 131.607 46.543 131.721 46.1618Z" fill="#066D0A"/>
<path d="M128.624 47.7103L135.212 25.5894C135.382 25.014 135.353 24.3981 135.131 23.8411C134.908 23.284 134.504 22.8183 133.984 22.5189L115.468 11.8856C115.112 11.6828 114.714 11.5646 114.305 11.54C113.897 11.5155 113.488 11.5852 113.11 11.744C112.733 11.9027 112.397 12.1461 112.129 12.4554C111.86 12.7647 111.667 13.1316 111.563 13.5277L105.689 36.3294C105.543 36.8995 105.59 37.5016 105.821 38.0424C106.053 38.5832 106.457 39.0322 106.97 39.3198L124.779 49.2656C125.127 49.4578 125.513 49.57 125.91 49.594C126.307 49.6179 126.704 49.553 127.072 49.404C127.44 49.255 127.771 49.0256 128.039 48.7326C128.308 48.4396 128.508 48.0903 128.624 47.7103Z" fill="#139E20"/>
<path d="M118.491 20.5298L117.857 22.5323L117.103 22.1518C116.991 22.0858 116.865 22.0472 116.735 22.039C116.605 22.0309 116.475 22.0535 116.355 22.1051C116.226 22.1708 116.114 22.2651 116.028 22.3808C115.941 22.4965 115.882 22.6305 115.855 22.7726L115 25.496C114.917 25.7751 114.793 26.0405 114.633 26.2836C114.525 26.4605 114.379 26.611 114.206 26.7242C114.08 26.7996 113.946 26.8601 113.805 26.9044C113.712 26.9396 113.611 26.9533 113.512 26.9445H113.398L113.492 27.0446C113.561 27.1354 113.624 27.2314 113.679 27.3316C113.767 27.4845 113.834 27.6484 113.879 27.8189C113.924 28.0384 113.942 28.2625 113.932 28.4864C113.925 28.7948 113.874 29.1006 113.779 29.3942L112.918 32.1309C112.811 32.4173 112.811 32.7324 112.918 33.0187C113.021 33.2899 113.22 33.5134 113.478 33.6462L114.239 34.04L113.572 36.0425L112.437 35.4484C111.703 35.1006 111.124 34.4913 110.815 33.7396C110.53 32.941 110.53 32.0685 110.815 31.2699L111.763 28.4063C111.876 28.105 111.876 27.7731 111.763 27.4718C111.643 27.1796 111.42 26.9419 111.135 26.8043L111.716 24.942C111.836 25.0176 111.973 25.0643 112.114 25.0782C112.255 25.0921 112.398 25.0729 112.531 25.0221C112.661 24.9567 112.775 24.8628 112.864 24.7472C112.953 24.6316 113.015 24.4974 113.045 24.3546L113.946 21.4843C114.027 21.1087 114.188 20.755 114.418 20.4474C114.649 20.1398 114.943 19.8856 115.281 19.7021C115.622 19.5741 115.989 19.528 116.352 19.5674C116.715 19.6068 117.064 19.7306 117.37 19.929L118.491 20.5298Z" fill="white"/>
<path d="M128.451 25.7162C129.185 26.064 129.764 26.6733 130.073 27.425C130.358 28.2213 130.358 29.0919 130.073 29.8881L129.118 32.7517C129.006 33.053 129.006 33.3848 129.118 33.6862C129.239 33.9777 129.462 34.2151 129.746 34.3537L129.165 36.216C129.045 36.1417 128.911 36.0953 128.771 36.0803C128.631 36.0652 128.49 36.082 128.357 36.1292C128.226 36.195 128.112 36.2889 128.022 36.4044C127.932 36.5198 127.868 36.6538 127.837 36.7967L126.942 39.6603C126.862 40.0371 126.701 40.3922 126.47 40.701C126.24 41.0097 125.946 41.265 125.607 41.4492C125.265 41.5772 124.898 41.6233 124.535 41.5839C124.173 41.5445 123.824 41.4206 123.518 41.2222L122.383 40.6282L123.051 38.6257L123.805 39.0195C123.916 39.0862 124.042 39.1263 124.172 39.1367C124.301 39.1471 124.432 39.1276 124.552 39.0796C124.676 39.0176 124.784 38.9293 124.869 38.8208C124.955 38.7124 125.015 38.5865 125.046 38.4521L125.907 35.7154C125.99 35.4341 126.114 35.1665 126.275 34.921C126.382 34.7454 126.528 34.597 126.702 34.4872C126.829 34.4198 126.96 34.3618 127.096 34.3136C127.193 34.2731 127.299 34.2592 127.403 34.2736H127.503L127.409 34.1801C127.342 34.0879 127.279 33.9921 127.222 33.8931C127.131 33.7395 127.064 33.573 127.022 33.3991C126.978 33.1796 126.96 32.9555 126.969 32.7316C126.976 32.4233 127.028 32.1175 127.122 31.8238L127.977 29.1004C128.081 28.8092 128.081 28.4906 127.977 28.1993C127.882 27.9131 127.682 27.6742 127.416 27.5318L126.662 27.138L127.296 25.1355L128.451 25.7162Z" fill="white"/>
<path d="M125.307 28.3929L121.682 31.2098L122.864 36.7366L120.654 35.5819L119.88 32.1442L117.47 33.9198L115.268 32.7717L119.099 29.8614L118.004 24.5815L120.294 25.7763L120.888 28.9336L123.024 27.1981L125.307 28.3929Z" fill="white"/>
</g>
<defs>
<filter id="filter0_d_123_627" x="0.282227" y="0" width="268.436" height="209.031" filterUnits="userSpaceOnUse" color-interpolation-filters="sRGB">
<feFlood flood-opacity="0" result="BackgroundImageFix"/>
<feColorMatrix in="SourceAlpha" type="matrix" values="0 0 0 0 0 0 0 0 0 0 0 0 0 0 0 0 0 0 127 0" result="hardAlpha"/>
<feOffset dy="7"/>
<feGaussianBlur stdDeviation="8.5"/>
<feComposite in2="hardAlpha" operator="out"/>
<feColorMatrix type="matrix" values="0 0 0 0 0 0 0 0 0 0 0 0 0 0 0 0 0 0 0.25 0"/>
<feBlend mode="normal" in2="BackgroundImageFix" result="effect1_dropShadow_123_627"/>
<feBlend mode="normal" in="SourceGraphic" in2="effect1_dropShadow_123_627" result="shape"/>
</filter>
</defs>
</svg>
