<svg width="144" height="48" viewBox="0 0 144 48" fill="none" xmlns="http://www.w3.org/2000/svg">
<path d="M0 22.3866H144V38.2884C144 43.1675 140.045 47.1227 135.166 47.1227H8.83435C3.95527 47.1227 0 43.1675 0 38.2884V22.3866Z" fill="#E8E1BF"/>
<path d="M16 22.0001V21.8781C16.549 21.8781 16.9862 21.8374 17.3115 21.7561C17.6368 21.6747 17.891 21.5324 18.074 21.3291C18.257 21.1257 18.379 20.8614 18.44 20.5361C18.501 20.2107 18.5315 19.7939 18.5315 19.2856V3.36464C18.5315 2.8563 18.501 2.43947 18.44 2.11414C18.379 1.76848 18.257 1.50414 18.074 1.32114C17.891 1.11781 17.6368 0.975479 17.3115 0.894146C16.9862 0.812813 16.549 0.772146 16 0.772146V0.650146H25.2415C25.8718 0.650146 26.4716 0.741646 27.041 0.924645C27.6306 1.10764 28.1491 1.38214 28.5964 1.74814C29.0641 2.11414 29.4301 2.56147 29.6944 3.09014C29.9791 3.6188 30.1214 4.21863 30.1214 4.88963C30.1214 5.49963 30.0096 6.04862 29.7859 6.53662C29.5623 7.00429 29.2573 7.41095 28.8709 7.75662C28.5049 8.10228 28.0678 8.38695 27.5595 8.61061C27.0511 8.81395 26.5225 8.96645 25.9735 9.06811C26.7868 9.08845 27.4883 9.30194 28.078 9.70861C28.6879 10.1153 29.1861 10.6236 29.5724 11.2336C29.9588 11.8436 30.2434 12.5248 30.4264 13.2771C30.6298 14.0091 30.7314 14.7309 30.7314 15.4426C30.7314 16.3169 30.6094 17.1607 30.3654 17.9741C30.1214 18.7671 29.7554 19.4584 29.2674 20.0481C28.7998 20.6377 28.2101 21.1156 27.4985 21.4816C26.7868 21.8272 25.9531 22.0001 24.9975 22.0001H16ZM23.0455 9.19011V9.06811H23.259C23.8893 9.06811 24.4485 8.95628 24.9365 8.73261C25.4245 8.48861 25.8311 8.17345 26.1565 7.78712C26.5021 7.38045 26.7563 6.92295 26.919 6.41462C27.102 5.88596 27.1935 5.32679 27.1935 4.73713C27.1935 4.2288 27.1223 3.7408 26.98 3.27314C26.858 2.78514 26.6546 2.35814 26.37 1.99214C26.1056 1.62614 25.76 1.33131 25.333 1.10764C24.9263 0.883979 24.4383 0.772146 23.869 0.772146C23.32 0.772146 22.8828 0.822979 22.5575 0.924645C22.2525 1.00598 22.0085 1.15848 21.8255 1.38214C21.6628 1.58548 21.551 1.85998 21.49 2.20564C21.4493 2.55131 21.429 2.96814 21.429 3.45614V19.2856C21.429 19.7939 21.4595 20.2107 21.5205 20.5361C21.5815 20.8614 21.7035 21.1257 21.8865 21.3291C22.0695 21.5324 22.3236 21.6747 22.649 21.7561C22.9743 21.8374 23.4115 21.8781 23.9605 21.8781C24.7128 21.8781 25.333 21.6442 25.821 21.1766C26.309 20.7089 26.6953 20.1396 26.98 19.4686C27.285 18.7976 27.4883 18.0859 27.59 17.3336C27.712 16.5609 27.773 15.8899 27.773 15.3206C27.773 14.7919 27.7221 14.1718 27.6205 13.4601C27.5391 12.7484 27.3663 12.0774 27.102 11.4471C26.858 10.8168 26.5123 10.2881 26.065 9.86111C25.638 9.41378 25.0686 9.19011 24.357 9.19011H23.0455Z" fill="#131313"/>
<path d="M43.6696 18.4011H43.7611C43.6594 18.9907 43.4459 19.5194 43.1206 19.9871C42.8156 20.4344 42.4293 20.8106 41.9616 21.1156C41.5143 21.4206 41.0161 21.6544 40.4671 21.8171C39.9384 21.9594 39.3894 22.0306 38.8201 22.0306C37.7424 22.0306 36.7969 21.8272 35.9836 21.4206C35.1703 20.9936 34.4891 20.4344 33.9401 19.7431C33.3911 19.0314 32.9743 18.2282 32.6896 17.3336C32.405 16.4186 32.2626 15.4629 32.2626 14.4666C32.2626 13.4906 32.3948 12.5349 32.6591 11.5996C32.9438 10.6643 33.3505 9.83061 33.8791 9.09861C34.4281 8.36662 35.1093 7.77695 35.9226 7.32962C36.7359 6.88229 37.6814 6.65862 38.7591 6.65862C39.4098 6.65862 40.0299 6.76029 40.6196 6.96362C41.2093 7.14662 41.7278 7.42112 42.1751 7.78712C42.6224 8.15312 42.9783 8.61061 43.2426 9.15961C43.5069 9.68828 43.6391 10.3084 43.6391 11.0201C43.6391 11.9554 43.4357 12.7789 43.0291 13.4906C42.6428 14.1819 42.1243 14.7614 41.4736 15.2291C40.8229 15.6968 40.0909 16.0526 39.2776 16.2966C38.4643 16.5202 37.6408 16.6321 36.8071 16.6321C36.4004 16.6321 35.9938 16.6016 35.5871 16.5406C35.7498 17.1506 35.9633 17.7301 36.2276 18.2791C36.4919 18.8281 36.8173 19.3161 37.2036 19.7431C37.6103 20.1497 38.0779 20.4751 38.6066 20.7191C39.1353 20.9631 39.7351 21.0851 40.4061 21.0851C41.2398 21.0851 41.9514 20.8411 42.5411 20.3531C43.1308 19.8651 43.5069 19.2144 43.6696 18.4011ZM35.5566 16.4186C35.6583 16.4389 35.7498 16.4491 35.8311 16.4491C35.9328 16.4491 36.0344 16.4491 36.1361 16.4491C36.9494 16.4491 37.6611 16.2559 38.2711 15.8696C38.8811 15.4833 39.3793 14.9953 39.7656 14.4056C40.1723 13.7956 40.4671 13.1246 40.6501 12.3926C40.8534 11.6606 40.9551 10.9388 40.9551 10.2271C40.9551 9.92211 40.9246 9.57644 40.8636 9.19011C40.8229 8.78345 40.7213 8.40728 40.5586 8.06162C40.4163 7.69562 40.2231 7.39062 39.9791 7.14662C39.7351 6.90262 39.4098 6.78062 39.0031 6.78062C38.2711 6.78062 37.6611 7.03479 37.1731 7.54312C36.7054 8.05145 36.3191 8.66145 36.0141 9.37311C35.7294 10.0848 35.5261 10.8371 35.4041 11.6301C35.3024 12.4028 35.2516 13.0636 35.2516 13.6126C35.2516 14.6089 35.3533 15.5443 35.5566 16.4186Z" fill="#131313"/>
<path d="M44.0587 22.0001V21.8781C44.6077 21.8781 45.0449 21.8374 45.3702 21.7561C45.6955 21.6747 45.9497 21.5324 46.1327 21.3291C46.3157 21.1257 46.4377 20.8614 46.4987 20.5361C46.5597 20.2107 46.5902 19.7939 46.5902 19.2856V9.58661C46.5902 9.01728 46.5698 8.55978 46.5292 8.21412C46.4885 7.84812 46.3869 7.57362 46.2242 7.39062C46.0615 7.18729 45.8074 7.05512 45.4617 6.99412C45.116 6.91279 44.6484 6.87212 44.0587 6.87212V6.75012H47.6882C48.2575 6.75012 48.6947 6.90262 48.9997 7.20762C49.325 7.51262 49.4877 7.94978 49.4877 8.51911C49.996 7.92945 50.667 7.48212 51.5007 7.17712C52.3547 6.85179 53.168 6.68912 53.9407 6.68912C54.4693 6.68912 54.9776 6.77046 55.4656 6.93312C55.974 7.07545 56.4111 7.29912 56.7771 7.60412C57.1635 7.90912 57.4685 8.28528 57.6921 8.73261C57.9361 9.17995 58.0581 9.68828 58.0581 10.2576V19.2856C58.0581 19.7939 58.0886 20.2107 58.1496 20.5361C58.2106 20.8614 58.3326 21.1257 58.5156 21.3291C58.6986 21.5324 58.9528 21.6747 59.2781 21.7561C59.6035 21.8374 60.0406 21.8781 60.5896 21.8781V22.0001H52.6292V21.8781C53.2595 21.8781 53.7475 21.8069 54.0932 21.6646C54.4388 21.5019 54.6828 21.2782 54.8251 20.9936C54.9878 20.7089 55.0793 20.3632 55.0996 19.9566C55.1403 19.5296 55.1606 19.0517 55.1606 18.5231V10.3491C55.1606 9.98311 55.1098 9.61711 55.0081 9.25111C54.9268 8.86478 54.7845 8.51912 54.5812 8.21412C54.3778 7.90912 54.1135 7.66512 53.7882 7.48212C53.4832 7.27879 53.1172 7.17712 52.6902 7.17712C52.1412 7.17712 51.5515 7.32962 50.9212 7.63462C50.3112 7.93962 49.8333 8.30562 49.4877 8.73261V19.5601C49.4877 20.4954 49.6707 21.1156 50.0367 21.4206C50.423 21.7256 51.0838 21.8781 52.0192 21.8781V22.0001H44.0587Z" fill="#131313"/>
<path d="M73.6493 22.3356L68.4948 4.27963C68.3525 3.79163 68.2203 3.33414 68.0983 2.90714C67.9763 2.48014 67.8136 2.11414 67.6103 1.80914C67.407 1.48381 67.1325 1.22964 66.7868 1.04665C66.4615 0.863646 66.0243 0.772146 65.4753 0.772146V0.650146H74.2593V0.772146C73.934 0.772146 73.5985 0.782313 73.2528 0.802646C72.9071 0.802646 72.5818 0.853479 72.2768 0.955145C71.9921 1.05681 71.7481 1.21948 71.5448 1.44314C71.3618 1.66681 71.2703 1.99214 71.2703 2.41914C71.2703 2.74447 71.3008 3.05964 71.3618 3.36464C71.4228 3.66964 71.5041 3.97463 71.6058 4.27963L75.2353 16.8456L78.5293 5.37763C78.3869 4.82863 78.2649 4.27963 78.1633 3.73063C78.0616 3.18164 77.8989 2.69364 77.6753 2.26664C77.4719 1.81931 77.1771 1.46348 76.7908 1.19914C76.4248 0.914479 75.9063 0.772146 75.2353 0.772146V0.650146H84.0192V0.772146C83.6939 0.772146 83.3483 0.782313 82.9823 0.802646C82.6366 0.802646 82.3214 0.853479 82.0368 0.955145C81.7724 1.03648 81.5488 1.19914 81.3658 1.44314C81.1828 1.66681 81.0913 1.99214 81.0913 2.41914C81.0913 2.74447 81.1116 3.05964 81.1523 3.36464C81.2133 3.66964 81.2844 3.97463 81.3658 4.27963L84.4157 16.9066L87.6792 5.92663C87.8012 5.51996 87.9029 5.12346 87.9842 4.73713C88.0656 4.33047 88.1062 3.9238 88.1062 3.51714C88.1062 2.62247 87.8724 1.94131 87.4047 1.47364C86.9574 1.00598 86.2762 0.772146 85.3612 0.772146V0.650146H91.1867V0.772146C90.6377 0.772146 90.1802 0.965312 89.8142 1.35164C89.4482 1.73798 89.1331 2.20564 88.8687 2.75464C88.6247 3.30364 88.4214 3.87297 88.2587 4.46263C88.0961 5.03196 87.9537 5.51996 87.8317 5.92663L82.9518 22.3356H82.7993L78.5903 5.65213L73.8018 22.3356H73.6493Z" fill="#131313"/>
<path d="M100.442 18.4011H100.534C100.432 18.9907 100.219 19.5194 99.8932 19.9871C99.5882 20.4344 99.2019 20.8106 98.7342 21.1156C98.2869 21.4206 97.7887 21.6544 97.2397 21.8171C96.7111 21.9594 96.1621 22.0306 95.5928 22.0306C94.5151 22.0306 93.5696 21.8272 92.7563 21.4206C91.9429 20.9936 91.2618 20.4344 90.7128 19.7431C90.1638 19.0314 89.7469 18.2282 89.4623 17.3336C89.1776 16.4186 89.0353 15.4629 89.0353 14.4666C89.0353 13.4906 89.1674 12.5349 89.4318 11.5996C89.7164 10.6643 90.1231 9.83061 90.6518 9.09861C91.2008 8.36662 91.8819 7.77695 92.6953 7.32962C93.5086 6.88229 94.4541 6.65862 95.5318 6.65862C96.1824 6.65862 96.8026 6.76029 97.3923 6.96362C97.9819 7.14662 98.5004 7.42112 98.9477 7.78712C99.3951 8.15312 99.7509 8.61061 100.015 9.15961C100.28 9.68828 100.412 10.3084 100.412 11.0201C100.412 11.9554 100.208 12.7789 99.8017 13.4906C99.4154 14.1819 98.8969 14.7614 98.2462 15.2291C97.5956 15.6968 96.8636 16.0526 96.0503 16.2966C95.2369 16.5202 94.4134 16.6321 93.5798 16.6321C93.1731 16.6321 92.7664 16.6016 92.3598 16.5406C92.5224 17.1506 92.7359 17.7301 93.0003 18.2791C93.2646 18.8281 93.5899 19.3161 93.9763 19.7431C94.3829 20.1497 94.8506 20.4751 95.3793 20.7191C95.9079 20.9631 96.5078 21.0851 97.1787 21.0851C98.0124 21.0851 98.7241 20.8411 99.3137 20.3531C99.9034 19.8651 100.28 19.2144 100.442 18.4011ZM92.3293 16.4186C92.4309 16.4389 92.5224 16.4491 92.6038 16.4491C92.7054 16.4491 92.8071 16.4491 92.9088 16.4491C93.7221 16.4491 94.4338 16.2559 95.0438 15.8696C95.6538 15.4833 96.1519 14.9953 96.5383 14.4056C96.9449 13.7956 97.2398 13.1246 97.4228 12.3926C97.6261 11.6606 97.7277 10.9388 97.7277 10.2271C97.7277 9.92211 97.6972 9.57644 97.6362 9.19011C97.5956 8.78345 97.4939 8.40728 97.3313 8.06162C97.1889 7.69562 96.9958 7.39062 96.7518 7.14662C96.5078 6.90262 96.1824 6.78062 95.7758 6.78062C95.0438 6.78062 94.4338 7.03479 93.9458 7.54312C93.4781 8.05145 93.0918 8.66145 92.7868 9.37311C92.5021 10.0848 92.2988 10.8371 92.1768 11.6301C92.0751 12.4028 92.0243 13.0636 92.0243 13.6126C92.0243 14.6089 92.1259 15.5443 92.3293 16.4186Z" fill="#131313"/>
<path d="M100.534 22.0001V21.8781C101.225 21.8781 101.743 21.8069 102.089 21.6646C102.435 21.5222 102.679 21.3087 102.821 21.0241C102.963 20.7394 103.034 20.3836 103.034 19.9566C103.055 19.5092 103.065 18.9806 103.065 18.3706V3.48663C103.065 2.89697 103.034 2.42931 102.973 2.08364C102.933 1.71764 102.831 1.44314 102.668 1.26015C102.506 1.05681 102.252 0.924645 101.906 0.863646C101.581 0.802646 101.123 0.772146 100.534 0.772146V0.650146H104.163C104.692 0.650146 105.119 0.792479 105.444 1.07714C105.79 1.36181 105.962 1.79898 105.962 2.38864V18.3706C105.962 18.9806 105.962 19.5092 105.962 19.9566C105.983 20.3836 106.064 20.7394 106.206 21.0241C106.349 21.3087 106.593 21.5222 106.938 21.6646C107.284 21.8069 107.803 21.8781 108.494 21.8781V22.0001H100.534Z" fill="#131313"/>
<path d="M107.876 22.0001V21.8781C108.567 21.8781 109.086 21.8069 109.432 21.6646C109.777 21.5222 110.021 21.3087 110.164 21.0241C110.306 20.7394 110.377 20.3836 110.377 19.9566C110.397 19.5092 110.408 18.9806 110.408 18.3706V3.48663C110.408 2.89697 110.377 2.42931 110.316 2.08364C110.275 1.71764 110.174 1.44314 110.011 1.26015C109.848 1.05681 109.594 0.924645 109.249 0.863646C108.923 0.802646 108.466 0.772146 107.876 0.772146V0.650146H111.506C112.034 0.650146 112.461 0.792479 112.787 1.07714C113.132 1.36181 113.305 1.79898 113.305 2.38864V18.3706C113.305 18.9806 113.305 19.5092 113.305 19.9566C113.325 20.3836 113.407 20.7394 113.549 21.0241C113.691 21.3087 113.935 21.5222 114.281 21.6646C114.627 21.8069 115.145 21.8781 115.837 21.8781V22.0001H107.876Z" fill="#131313"/>
<path d="M119.885 15.4426C119.621 15.5646 119.397 15.7374 119.214 15.9611C119.052 16.1644 118.919 16.4084 118.818 16.6931C118.716 16.9574 118.635 17.2421 118.574 17.5471C118.533 17.8317 118.513 18.1062 118.513 18.3706C118.513 18.8382 118.564 19.2957 118.665 19.7431C118.787 20.1701 118.96 20.5564 119.184 20.9021C119.428 21.2274 119.733 21.4917 120.099 21.6951C120.485 21.8984 120.943 22.0001 121.471 22.0001C122.244 22.0001 122.773 21.7459 123.057 21.2376C123.362 20.7292 123.515 20.1396 123.515 19.4686C123.515 18.7162 123.352 18.0554 123.027 17.4861C122.722 16.8964 122.325 16.3677 121.837 15.9001C121.349 15.4121 120.831 14.9546 120.282 14.5276C119.733 14.1006 119.214 13.6634 118.726 13.2161C118.238 12.7484 117.832 12.2503 117.506 11.7216C117.201 11.1929 117.049 10.5829 117.049 9.89161C117.049 9.24095 117.171 8.71228 117.415 8.30562C117.679 7.87862 118.015 7.54312 118.421 7.29912C118.848 7.03479 119.316 6.85179 119.824 6.75012C120.353 6.64846 120.892 6.59762 121.441 6.59762C121.868 6.59762 122.325 6.63829 122.813 6.71962C123.301 6.80096 123.749 6.95345 124.155 7.17712C124.562 7.38045 124.897 7.66512 125.162 8.03112C125.446 8.37678 125.589 8.81395 125.589 9.34261C125.589 10.1559 125.324 10.8168 124.796 11.3251C124.267 11.8131 123.606 12.0571 122.813 12.0571V11.9656C123.159 11.7419 123.383 11.4369 123.484 11.0506C123.606 10.6643 123.667 10.2881 123.667 9.92211C123.667 9.04778 123.444 8.29545 122.996 7.66512C122.569 7.03479 121.878 6.71962 120.922 6.71962C120.394 6.71962 119.987 6.87212 119.702 7.17712C119.418 7.46179 119.275 7.86845 119.275 8.39712C119.275 8.98678 119.438 9.53578 119.763 10.0441C120.109 10.5321 120.536 11.0201 121.044 11.5081C121.553 11.9758 122.102 12.4536 122.691 12.9416C123.281 13.4093 123.83 13.9176 124.338 14.4666C124.847 15.0156 125.263 15.6154 125.589 16.2661C125.934 16.8964 126.107 17.6081 126.107 18.4011C126.107 19.1127 125.955 19.7126 125.65 20.2006C125.345 20.6682 124.948 21.0444 124.46 21.3291C123.972 21.6137 123.423 21.8171 122.813 21.9391C122.203 22.0611 121.603 22.1221 121.014 22.1221C120.505 22.1221 119.956 22.0712 119.367 21.9696C118.797 21.8476 118.269 21.6544 117.781 21.3901C117.313 21.1257 116.917 20.7801 116.591 20.3531C116.286 19.9057 116.134 19.3669 116.134 18.7366C116.134 17.6182 116.49 16.7744 117.201 16.2051C117.913 15.6154 118.797 15.3206 119.855 15.3206L119.885 15.4426Z" fill="#131313"/>
<path d="M35.6343 39.7762L33.3425 31.7481C33.2792 31.5312 33.2205 31.3277 33.1662 31.1379C33.112 30.948 33.0397 30.7853 32.9493 30.6497C32.8589 30.505 32.7368 30.392 32.5831 30.3107C32.4385 30.2293 32.2441 30.1886 32 30.1886V30.1344H35.9055V30.1886C35.7609 30.1886 35.6117 30.1931 35.458 30.2022C35.3043 30.2022 35.1597 30.2248 35.0241 30.27C34.8975 30.3152 34.789 30.3875 34.6986 30.487C34.6173 30.5864 34.5766 30.7311 34.5766 30.9209C34.5766 31.0656 34.5901 31.2057 34.6173 31.3413C34.6444 31.4769 34.6805 31.6125 34.7257 31.7481L36.3395 37.3352L37.8041 32.2363C37.7408 31.9922 37.6865 31.7481 37.6413 31.504C37.5961 31.2599 37.5238 31.043 37.4244 30.8531C37.334 30.6542 37.2029 30.496 37.0311 30.3785C36.8684 30.2519 36.6378 30.1886 36.3395 30.1886V30.1344H40.245V30.1886C40.1004 30.1886 39.9467 30.1931 39.784 30.2022C39.6303 30.2022 39.4901 30.2248 39.3636 30.27C39.246 30.3062 39.1466 30.3785 39.0652 30.487C38.9839 30.5864 38.9432 30.7311 38.9432 30.9209C38.9432 31.0656 38.9522 31.2057 38.9703 31.3413C38.9974 31.4769 39.0291 31.6125 39.0652 31.7481L40.4213 37.3623L41.8723 32.4804C41.9266 32.2996 41.9718 32.1233 42.0079 31.9515C42.0441 31.7707 42.0622 31.5899 42.0622 31.4091C42.0622 31.0113 41.9582 30.7085 41.7503 30.5005C41.5514 30.2926 41.2485 30.1886 40.8417 30.1886V30.1344H43.4318V30.1886C43.1877 30.1886 42.9843 30.2745 42.8216 30.4463C42.6589 30.6181 42.5187 30.826 42.4012 31.0701C42.2927 31.3142 42.2023 31.5673 42.13 31.8295C42.0577 32.0826 41.9944 32.2996 41.9401 32.4804L39.7704 39.7762H39.7026L37.8312 32.3584L35.7021 39.7762H35.6343Z" fill="#6C705C"/>
<path d="M47.8183 38.0268H47.8589C47.8137 38.289 47.7188 38.5241 47.5742 38.732C47.4386 38.9309 47.2668 39.0981 47.0588 39.2337C46.86 39.3694 46.6385 39.4733 46.3944 39.5456C46.1593 39.6089 45.9152 39.6406 45.6621 39.6406C45.1829 39.6406 44.7625 39.5502 44.4009 39.3694C44.0393 39.1795 43.7364 38.9309 43.4923 38.6235C43.2482 38.3071 43.0629 37.95 42.9363 37.5522C42.8098 37.1454 42.7465 36.7205 42.7465 36.2775C42.7465 35.8435 42.8052 35.4186 42.9228 35.0027C43.0493 34.5869 43.2302 34.2162 43.4652 33.8908C43.7093 33.5653 44.0122 33.3031 44.3738 33.1042C44.7354 32.9053 45.1558 32.8059 45.635 32.8059C45.9243 32.8059 46.2 32.8511 46.4622 32.9415C46.7243 33.0229 46.9549 33.1449 47.1538 33.3076C47.3527 33.4704 47.5109 33.6738 47.6284 33.9179C47.7459 34.1529 47.8047 34.4287 47.8047 34.7451C47.8047 35.161 47.7143 35.5271 47.5335 35.8435C47.3617 36.1509 47.1312 36.4086 46.8419 36.6165C46.5526 36.8244 46.2271 36.9826 45.8655 37.0911C45.5039 37.1906 45.1377 37.2403 44.7671 37.2403C44.5862 37.2403 44.4054 37.2267 44.2246 37.1996C44.2969 37.4708 44.3919 37.7285 44.5094 37.9726C44.6269 38.2167 44.7716 38.4337 44.9433 38.6235C45.1242 38.8043 45.3321 38.949 45.5671 39.0575C45.8022 39.1659 46.0689 39.2202 46.3672 39.2202C46.7379 39.2202 47.0543 39.1117 47.3165 38.8947C47.5787 38.6778 47.7459 38.3885 47.8183 38.0268ZM44.2111 37.1454C44.2563 37.1544 44.2969 37.1589 44.3331 37.1589C44.3783 37.1589 44.4235 37.1589 44.4687 37.1589C44.8303 37.1589 45.1468 37.073 45.418 36.9013C45.6892 36.7295 45.9107 36.5125 46.0825 36.2504C46.2633 35.9791 46.3944 35.6808 46.4757 35.3553C46.5661 35.0299 46.6113 34.7089 46.6113 34.3925C46.6113 34.2569 46.5978 34.1032 46.5707 33.9314C46.5526 33.7506 46.5074 33.5834 46.435 33.4297C46.3718 33.267 46.2859 33.1313 46.1774 33.0229C46.0689 32.9144 45.9243 32.8601 45.7434 32.8601C45.418 32.8601 45.1468 32.9731 44.9298 33.1991C44.7219 33.4252 44.5501 33.6964 44.4145 34.0128C44.2879 34.3292 44.1975 34.6637 44.1433 35.0163C44.0981 35.3599 44.0754 35.6537 44.0754 35.8978C44.0754 36.3408 44.1206 36.7566 44.2111 37.1454Z" fill="#6C705C"/>
<path d="M48.1301 39.627V39.5728C48.3741 39.5728 48.5685 39.5547 48.7132 39.5185C48.8578 39.4824 48.9708 39.4191 49.0522 39.3287C49.1336 39.2383 49.1878 39.1207 49.2149 38.9761C49.242 38.8314 49.2556 38.6461 49.2556 38.4201V31.3955C49.2556 31.1424 49.2466 30.939 49.2285 30.7853C49.2104 30.6226 49.1652 30.5005 49.0929 30.4192C49.0205 30.3288 48.9075 30.27 48.7539 30.2429C48.6002 30.2067 48.3922 30.1886 48.1301 30.1886V30.1344H49.7302C49.9834 30.1344 50.1823 30.1977 50.3269 30.3242C50.4716 30.4508 50.5439 30.6452 50.5439 30.9074V33.5789C50.7609 33.3076 51.023 33.1133 51.3304 32.9957C51.6468 32.8782 51.9768 32.8194 52.3204 32.8194C52.7634 32.8194 53.134 32.9279 53.4324 33.1449C53.7307 33.3619 53.9658 33.6376 54.1375 33.9721C54.3183 34.2976 54.4449 34.6592 54.5172 35.057C54.5986 35.4548 54.6393 35.839 54.6393 36.2097C54.6393 36.5803 54.5896 36.9691 54.4901 37.3759C54.3907 37.7827 54.237 38.1579 54.029 38.5015C53.8211 38.836 53.5544 39.1162 53.2289 39.3422C52.9125 39.5592 52.5373 39.6677 52.1034 39.6677C51.796 39.6677 51.5112 39.6044 51.2491 39.4778C50.9869 39.3422 50.7518 39.1614 50.5439 38.9354V39.627H48.1301ZM50.5439 38.854C50.6885 39.0077 50.8513 39.1388 51.0321 39.2473C51.2219 39.3468 51.4208 39.3965 51.6288 39.3965C51.9633 39.3965 52.239 39.288 52.456 39.071C52.673 38.854 52.8447 38.5919 52.9713 38.2845C53.0979 37.9681 53.1837 37.6381 53.2289 37.2945C53.2832 36.951 53.3103 36.6527 53.3103 36.3995C53.3103 36.1645 53.2877 35.8616 53.2425 35.4909C53.1973 35.1112 53.1159 34.7451 52.9984 34.3925C52.8899 34.0399 52.7317 33.7371 52.5238 33.4839C52.3158 33.2308 52.0492 33.1042 51.7237 33.1042C51.4796 33.1042 51.2581 33.1449 51.0592 33.2263C50.8603 33.3076 50.6885 33.4523 50.5439 33.6602V38.854Z" fill="#6C705C"/>
<path d="M62.2089 39.627V38.5286C62.0281 38.8721 61.7614 39.1433 61.4088 39.3422C61.0653 39.5411 60.6991 39.6406 60.3104 39.6406C59.8584 39.6406 59.4786 39.5321 59.1713 39.3151C58.8639 39.0981 58.6153 38.8269 58.4254 38.5015C58.2356 38.167 58.1 37.8008 58.0186 37.403C57.9372 36.9962 57.8965 36.6029 57.8965 36.2232C57.8965 35.8345 57.9508 35.4367 58.0593 35.0299C58.1678 34.614 58.3305 34.2388 58.5475 33.9043C58.7644 33.5698 59.0357 33.2986 59.3611 33.0907C59.6956 32.8737 60.0844 32.7652 60.5274 32.7652C60.8709 32.7652 61.1828 32.8285 61.4631 32.9551C61.7524 33.0726 62.001 33.276 62.2089 33.5653V31.3955C62.2089 31.1424 62.1999 30.939 62.1818 30.7853C62.1637 30.6226 62.1185 30.5005 62.0462 30.4192C61.9739 30.3288 61.8608 30.27 61.7072 30.2429C61.5535 30.2067 61.3455 30.1886 61.0834 30.1886V30.1344H62.6835C62.9367 30.1344 63.1356 30.1977 63.2802 30.3242C63.4249 30.4508 63.4972 30.6452 63.4972 30.9074V38.5286C63.4972 38.9083 63.5605 39.1795 63.687 39.3422C63.8136 39.4959 64.0803 39.5728 64.4871 39.5728V39.627H62.2089ZM62.2089 33.6602C62.0643 33.4523 61.888 33.2986 61.68 33.1991C61.4721 33.0907 61.2416 33.0364 60.9884 33.0364C60.6358 33.0364 60.3465 33.1449 60.1205 33.3619C59.8945 33.5698 59.7137 33.8275 59.5781 34.1348C59.4515 34.4332 59.3611 34.7586 59.3069 35.1112C59.2526 35.4548 59.2255 35.7622 59.2255 36.0334C59.2255 36.2865 59.2436 36.6029 59.2798 36.9826C59.325 37.3533 59.4063 37.7149 59.5239 38.0675C59.6414 38.4111 59.8086 38.7094 60.0256 38.9625C60.2426 39.2066 60.5319 39.3287 60.8935 39.3287C61.1828 39.3287 61.4405 39.2383 61.6665 39.0575C61.9015 38.8766 62.0823 38.6642 62.2089 38.4201V33.6602Z" fill="#6C705C"/>
<path d="M69.9607 38.0268H70.0013C69.9561 38.289 69.8612 38.5241 69.7166 38.732C69.581 38.9309 69.4092 39.0981 69.2012 39.2337C69.0024 39.3694 68.7809 39.4733 68.5368 39.5456C68.3017 39.6089 68.0576 39.6406 67.8045 39.6406C67.3253 39.6406 66.9049 39.5502 66.5433 39.3694C66.1817 39.1795 65.8788 38.9309 65.6347 38.6235C65.3906 38.3071 65.2053 37.95 65.0787 37.5522C64.9522 37.1454 64.8889 36.7205 64.8889 36.2775C64.8889 35.8435 64.9476 35.4186 65.0652 35.0027C65.1917 34.5869 65.3726 34.2162 65.6076 33.8908C65.8517 33.5653 66.1546 33.3031 66.5162 33.1042C66.8778 32.9053 67.2982 32.8059 67.7774 32.8059C68.0667 32.8059 68.3424 32.8511 68.6046 32.9415C68.8667 33.0229 69.0973 33.1449 69.2962 33.3076C69.4951 33.4704 69.6533 33.6738 69.7708 33.9179C69.8883 34.1529 69.9471 34.4287 69.9471 34.7451C69.9471 35.161 69.8567 35.5271 69.6759 35.8435C69.5041 36.1509 69.2736 36.4086 68.9843 36.6165C68.695 36.8244 68.3695 36.9826 68.0079 37.0911C67.6463 37.1906 67.2801 37.2403 66.9095 37.2403C66.7286 37.2403 66.5478 37.2267 66.367 37.1996C66.4393 37.4708 66.5343 37.7285 66.6518 37.9726C66.7693 38.2167 66.914 38.4337 67.0857 38.6235C67.2666 38.8043 67.4745 38.949 67.7095 39.0575C67.9446 39.1659 68.2113 39.2202 68.5096 39.2202C68.8803 39.2202 69.1967 39.1117 69.4589 38.8947C69.7211 38.6778 69.8883 38.3885 69.9607 38.0268ZM66.3535 37.1454C66.3987 37.1544 66.4393 37.1589 66.4755 37.1589C66.5207 37.1589 66.5659 37.1589 66.6111 37.1589C66.9727 37.1589 67.2892 37.073 67.5604 36.9013C67.8316 36.7295 68.0531 36.5125 68.2249 36.2504C68.4057 35.9791 68.5368 35.6808 68.6181 35.3553C68.7085 35.0299 68.7537 34.7089 68.7537 34.3925C68.7537 34.2569 68.7402 34.1032 68.7131 33.9314C68.695 33.7506 68.6498 33.5834 68.5774 33.4297C68.5142 33.267 68.4283 33.1313 68.3198 33.0229C68.2113 32.9144 68.0667 32.8601 67.8858 32.8601C67.5604 32.8601 67.2892 32.9731 67.0722 33.1991C66.8643 33.4252 66.6925 33.6964 66.5569 34.0128C66.4303 34.3292 66.3399 34.6637 66.2857 35.0163C66.2404 35.3599 66.2178 35.6537 66.2178 35.8978C66.2178 36.3408 66.2631 36.7566 66.3535 37.1454Z" fill="#6C705C"/>
<path d="M73.3404 39.7355L71.3469 34.0264C71.2837 33.8365 71.2249 33.6693 71.1706 33.5246C71.1164 33.38 71.0486 33.2624 70.9672 33.172C70.8859 33.0816 70.7819 33.0138 70.6553 32.9686C70.5288 32.9234 70.357 32.9008 70.14 32.9008V32.8466H76.595V32.9008C76.378 32.9008 76.1882 32.9551 76.0254 33.0635C75.8627 33.163 75.7181 33.2941 75.5915 33.4568C75.474 33.6195 75.3745 33.7958 75.2932 33.9857C75.2118 34.1755 75.144 34.3609 75.0897 34.5417L73.4082 39.7355H73.3404ZM73.9506 37.8505L75.0219 34.5417C75.0671 34.4151 75.1033 34.2885 75.1304 34.162C75.1576 34.0264 75.1711 33.8953 75.1711 33.7687C75.1711 33.4342 75.0671 33.2082 74.8592 33.0907C74.6513 32.9641 74.3981 32.9008 74.0998 32.9008C73.9913 32.9008 73.8512 32.8963 73.6794 32.8872C73.5167 32.8782 73.354 32.8872 73.1912 32.9144C73.0375 32.9415 72.9019 32.9957 72.7844 33.0771C72.6669 33.1494 72.6081 33.267 72.6081 33.4297C72.6081 33.5291 72.6171 33.6286 72.6352 33.728C72.6623 33.8275 72.694 33.9269 72.7301 34.0264L73.9506 37.8505Z" fill="#6C705C"/>
<path d="M81.5219 38.0268H81.5625C81.5173 38.289 81.4224 38.5241 81.2778 38.732C81.1421 38.9309 80.9704 39.0981 80.7624 39.2337C80.5635 39.3694 80.3421 39.4733 80.098 39.5456C79.8629 39.6089 79.6188 39.6406 79.3657 39.6406C78.8865 39.6406 78.4661 39.5502 78.1045 39.3694C77.7429 39.1795 77.44 38.9309 77.1959 38.6235C76.9518 38.3071 76.7665 37.95 76.6399 37.5522C76.5134 37.1454 76.4501 36.7205 76.4501 36.2775C76.4501 35.8435 76.5088 35.4186 76.6264 35.0027C76.7529 34.5869 76.9337 34.2162 77.1688 33.8908C77.4129 33.5653 77.7158 33.3031 78.0774 33.1042C78.439 32.9053 78.8594 32.8059 79.3385 32.8059C79.6278 32.8059 79.9036 32.8511 80.1658 32.9415C80.4279 33.0229 80.6585 33.1449 80.8574 33.3076C81.0563 33.4704 81.2145 33.6738 81.332 33.9179C81.4495 34.1529 81.5083 34.4287 81.5083 34.7451C81.5083 35.161 81.4179 35.5271 81.2371 35.8435C81.0653 36.1509 80.8348 36.4086 80.5455 36.6165C80.2562 36.8244 79.9307 36.9826 79.5691 37.0911C79.2075 37.1906 78.8413 37.2403 78.4706 37.2403C78.2898 37.2403 78.109 37.2267 77.9282 37.1996C78.0005 37.4708 78.0955 37.7285 78.213 37.9726C78.3305 38.2167 78.4752 38.4337 78.6469 38.6235C78.8278 38.8043 79.0357 38.949 79.2707 39.0575C79.5058 39.1659 79.7725 39.2202 80.0708 39.2202C80.4415 39.2202 80.7579 39.1117 81.0201 38.8947C81.2823 38.6778 81.4495 38.3885 81.5219 38.0268ZM77.9146 37.1454C77.9599 37.1544 78.0005 37.1589 78.0367 37.1589C78.0819 37.1589 78.1271 37.1589 78.1723 37.1589C78.5339 37.1589 78.8503 37.073 79.1216 36.9013C79.3928 36.7295 79.6143 36.5125 79.7861 36.2504C79.9669 35.9791 80.098 35.6808 80.1793 35.3553C80.2697 35.0299 80.3149 34.7089 80.3149 34.3925C80.3149 34.2569 80.3014 34.1032 80.2742 33.9314C80.2562 33.7506 80.211 33.5834 80.1386 33.4297C80.0754 33.267 79.9895 33.1313 79.881 33.0229C79.7725 32.9144 79.6278 32.8601 79.447 32.8601C79.1216 32.8601 78.8504 32.9731 78.6334 33.1991C78.4254 33.4252 78.2537 33.6964 78.1181 34.0128C77.9915 34.3292 77.9011 34.6637 77.8468 35.0163C77.8016 35.3599 77.779 35.6537 77.779 35.8978C77.779 36.3408 77.8242 36.7566 77.9146 37.1454Z" fill="#6C705C"/>
<path d="M81.8336 39.627V39.5728C82.141 39.5728 82.3716 39.5411 82.5253 39.4778C82.6789 39.4146 82.7874 39.3196 82.8507 39.1931C82.914 39.0665 82.9456 38.9083 82.9456 38.7184C82.9547 38.5195 82.9592 38.2845 82.9592 38.0133V31.3955C82.9592 31.1334 82.9456 30.9254 82.9185 30.7717C82.9004 30.609 82.8552 30.487 82.7829 30.4056C82.7106 30.3152 82.5976 30.2564 82.4439 30.2293C82.2992 30.2022 82.0958 30.1886 81.8336 30.1886V30.1344H83.4474C83.6825 30.1344 83.8723 30.1977 84.017 30.3242C84.1706 30.4508 84.2475 30.6452 84.2475 30.9074V38.0133C84.2475 38.2845 84.2475 38.5195 84.2475 38.7184C84.2565 38.9083 84.2927 39.0665 84.356 39.1931C84.4193 39.3196 84.5277 39.4146 84.6814 39.4778C84.8351 39.5411 85.0657 39.5728 85.373 39.5728V39.627H81.8336Z" fill="#6C705C"/>
<path d="M88.8004 39.6677C88.3123 39.6677 87.8738 39.5773 87.485 39.3965C87.0963 39.2157 86.7663 38.9716 86.4951 38.6642C86.2239 38.3478 86.0159 37.9816 85.8713 37.5658C85.7266 37.1499 85.6543 36.7069 85.6543 36.2368C85.6543 35.7667 85.7266 35.3237 85.8713 34.9078C86.0159 34.492 86.2239 34.1303 86.4951 33.8229C86.7663 33.5065 87.0963 33.2579 87.485 33.0771C87.8738 32.8963 88.3123 32.8059 88.8004 32.8059C89.2886 32.8059 89.7271 32.8963 90.1159 33.0771C90.5046 33.2579 90.8346 33.5065 91.1058 33.8229C91.377 34.1303 91.5849 34.492 91.7296 34.9078C91.8742 35.3237 91.9466 35.7667 91.9466 36.2368C91.9466 36.7069 91.8742 37.1499 91.7296 37.5658C91.5849 37.9816 91.377 38.3478 91.1058 38.6642C90.8346 38.9716 90.5046 39.2157 90.1159 39.3965C89.7271 39.5773 89.2886 39.6677 88.8004 39.6677ZM88.6242 39.5999C88.8863 39.5999 89.1169 39.5321 89.3158 39.3965C89.5147 39.2609 89.6864 39.0846 89.8311 38.8676C89.9757 38.6416 90.0978 38.3885 90.1972 38.1082C90.3057 37.8279 90.3916 37.5477 90.4549 37.2674C90.5182 36.9781 90.5634 36.7024 90.5905 36.4402C90.6176 36.178 90.6312 35.952 90.6312 35.7622C90.6312 35.5 90.6086 35.2016 90.5634 34.8671C90.5182 34.5326 90.4323 34.2162 90.3057 33.9179C90.1882 33.6195 90.0164 33.3709 89.7904 33.172C89.5734 32.9641 89.2932 32.8601 88.9496 32.8601C88.5609 32.8601 88.2354 33.0003 87.9732 33.2805C87.7201 33.5608 87.5167 33.8998 87.363 34.2976C87.2183 34.6863 87.1144 35.0932 87.0511 35.5181C86.9878 35.943 86.9562 36.3001 86.9562 36.5894C86.9562 36.8425 86.9788 37.1454 87.024 37.498C87.0692 37.8415 87.1505 38.1715 87.2681 38.4879C87.3946 38.7953 87.5664 39.0575 87.7834 39.2744C88.0004 39.4914 88.2806 39.5999 88.6242 39.5999Z" fill="#6C705C"/>
<path d="M92.2294 42.3392V42.285C92.4735 42.285 92.6679 42.2669 92.8126 42.2307C92.9572 42.1945 93.0702 42.1313 93.1516 42.0409C93.233 41.9595 93.2872 41.842 93.3143 41.6883C93.3414 41.5436 93.355 41.3583 93.355 41.1323V34.1077C93.355 33.8546 93.346 33.6512 93.3279 33.4975C93.3098 33.3348 93.2646 33.2127 93.1923 33.1313C93.1199 33.0409 93.0069 32.9822 92.8532 32.9551C92.6996 32.9189 92.4916 32.9008 92.2294 32.9008V32.8466H93.8432C94.0782 32.8466 94.2681 32.9099 94.4128 33.0364C94.5574 33.163 94.6342 33.3438 94.6433 33.5789C94.8603 33.3076 95.1224 33.1133 95.4298 32.9957C95.7462 32.8782 96.0762 32.8194 96.4198 32.8194C96.8628 32.8194 97.2334 32.9279 97.5318 33.1449C97.8301 33.3619 98.0652 33.6376 98.2369 33.9721C98.4177 34.2976 98.5443 34.6592 98.6166 35.057C98.698 35.4548 98.7387 35.839 98.7387 36.2097C98.7387 36.5803 98.689 36.9691 98.5895 37.3759C98.4901 37.7827 98.3364 38.1579 98.1284 38.5015C97.9205 38.836 97.6538 39.1162 97.3283 39.3422C97.0119 39.5592 96.6367 39.6677 96.2028 39.6677C95.8954 39.6677 95.6106 39.6044 95.3484 39.4778C95.0863 39.3422 94.8512 39.1614 94.6433 38.9354V41.295C94.6433 41.7109 94.7292 41.9776 94.9009 42.0951C95.0818 42.2217 95.3711 42.285 95.7688 42.285V42.3392H92.2294ZM94.6433 38.854C94.7879 39.0077 94.9507 39.1388 95.1315 39.2473C95.3213 39.3468 95.5202 39.3965 95.7282 39.3965C96.0627 39.3965 96.3384 39.288 96.5554 39.071C96.7723 38.854 96.9441 38.5919 97.0707 38.2845C97.1973 37.9681 97.2831 37.6381 97.3283 37.2945C97.3826 36.951 97.4097 36.6527 97.4097 36.3995C97.4097 36.1645 97.3871 35.8616 97.3419 35.4909C97.2967 35.1112 97.2153 34.7451 97.0978 34.3925C96.9893 34.0399 96.8311 33.7371 96.6232 33.4839C96.4152 33.2308 96.1485 33.1042 95.8231 33.1042C95.579 33.1042 95.3575 33.1449 95.1586 33.2263C94.9597 33.3076 94.7879 33.4523 94.6433 33.6602V38.854Z" fill="#6C705C"/>
<path d="M104.763 38.0268H104.804C104.759 38.289 104.664 38.5241 104.519 38.732C104.384 38.9309 104.212 39.0981 104.004 39.2337C103.805 39.3694 103.584 39.4733 103.34 39.5456C103.104 39.6089 102.86 39.6406 102.607 39.6406C102.128 39.6406 101.708 39.5502 101.346 39.3694C100.984 39.1795 100.682 38.9309 100.438 38.6235C100.193 38.3071 100.008 37.95 99.8815 37.5522C99.7549 37.1454 99.6917 36.7205 99.6917 36.2775C99.6917 35.8435 99.7504 35.4186 99.8679 35.0027C99.9945 34.5869 100.175 34.2162 100.41 33.8908C100.654 33.5653 100.957 33.3031 101.319 33.1042C101.681 32.9053 102.101 32.8059 102.58 32.8059C102.869 32.8059 103.145 32.8511 103.407 32.9415C103.67 33.0229 103.9 33.1449 104.099 33.3076C104.298 33.4704 104.456 33.6738 104.574 33.9179C104.691 34.1529 104.75 34.4287 104.75 34.7451C104.75 35.161 104.659 35.5271 104.479 35.8435C104.307 36.1509 104.076 36.4086 103.787 36.6165C103.498 36.8244 103.172 36.9826 102.811 37.0911C102.449 37.1906 102.083 37.2403 101.712 37.2403C101.531 37.2403 101.351 37.2267 101.17 37.1996C101.242 37.4708 101.337 37.7285 101.455 37.9726C101.572 38.2167 101.717 38.4337 101.889 38.6235C102.069 38.8043 102.277 38.949 102.512 39.0575C102.747 39.1659 103.014 39.2202 103.312 39.2202C103.683 39.2202 103.999 39.1117 104.262 38.8947C104.524 38.6778 104.691 38.3885 104.763 38.0268ZM101.156 37.1454C101.201 37.1544 101.242 37.1589 101.278 37.1589C101.323 37.1589 101.369 37.1589 101.414 37.1589C101.776 37.1589 102.092 37.073 102.363 36.9013C102.634 36.7295 102.856 36.5125 103.028 36.2504C103.208 35.9791 103.34 35.6808 103.421 35.3553C103.511 35.0299 103.557 34.7089 103.557 34.3925C103.557 34.2569 103.543 34.1032 103.516 33.9314C103.498 33.7506 103.453 33.5834 103.38 33.4297C103.317 33.267 103.231 33.1313 103.123 33.0229C103.014 32.9144 102.869 32.8601 102.689 32.8601C102.363 32.8601 102.092 32.9731 101.875 33.1991C101.667 33.4252 101.495 33.6964 101.36 34.0128C101.233 34.3292 101.143 34.6637 101.088 35.0163C101.043 35.3599 101.021 35.6537 101.021 35.8978C101.021 36.3408 101.066 36.7566 101.156 37.1454Z" fill="#6C705C"/>
<path d="M107.621 34.6366V38.4201C107.621 38.6461 107.635 38.836 107.662 38.9897C107.698 39.1343 107.757 39.2518 107.838 39.3422C107.92 39.4236 108.033 39.4824 108.177 39.5185C108.322 39.5547 108.512 39.5728 108.747 39.5728V39.627H105.208V39.5728C105.443 39.5728 105.633 39.5547 105.777 39.5185C105.922 39.4824 106.035 39.4236 106.116 39.3422C106.198 39.2518 106.252 39.1343 106.279 38.9897C106.315 38.836 106.333 38.6461 106.333 38.4201V34.1077C106.333 33.8546 106.324 33.6512 106.306 33.4975C106.288 33.3348 106.243 33.2127 106.17 33.1313C106.098 33.0409 105.985 32.9822 105.831 32.9551C105.678 32.9189 105.47 32.9008 105.208 32.9008V32.8466H106.821C107.038 32.8466 107.201 32.8872 107.31 32.9686C107.418 33.0409 107.495 33.1404 107.54 33.267C107.594 33.3845 107.621 33.5246 107.621 33.6873C107.621 33.841 107.621 33.9992 107.621 34.162C107.694 33.7732 107.861 33.4387 108.123 33.1585C108.394 32.8782 108.738 32.7381 109.154 32.7381C109.353 32.7381 109.543 32.7697 109.723 32.833C109.904 32.8872 110.062 32.9731 110.198 33.0907C110.343 33.2082 110.456 33.3483 110.537 33.511C110.618 33.6738 110.659 33.8636 110.659 34.0806C110.659 34.2976 110.614 34.4965 110.524 34.6773C110.442 34.8581 110.329 35.0118 110.185 35.1384C110.04 35.2559 109.873 35.3508 109.683 35.4231C109.493 35.4864 109.294 35.5181 109.086 35.5181C109.041 35.5181 108.991 35.5181 108.937 35.5181C108.892 35.5181 108.846 35.5135 108.801 35.5045V35.4503C108.928 35.4322 109.036 35.3779 109.127 35.2875C109.217 35.1881 109.289 35.0751 109.344 34.9485C109.398 34.8219 109.439 34.6908 109.466 34.5552C109.493 34.4196 109.506 34.2976 109.506 34.1891C109.506 33.8998 109.434 33.6467 109.289 33.4297C109.154 33.2037 108.928 33.0907 108.611 33.0907C108.431 33.0907 108.277 33.1449 108.15 33.2534C108.024 33.3619 107.92 33.493 107.838 33.6467C107.766 33.8003 107.712 33.9676 107.676 34.1484C107.64 34.3292 107.621 34.492 107.621 34.6366Z" fill="#6C705C"/>
</svg>
