<svg width="223" height="223" viewBox="0 0 223 223" fill="none" xmlns="http://www.w3.org/2000/svg">
<g filter="url(#filter0_d_123_747)">
<path d="M17.4199 145.509L109.754 198.82L205.58 143.494L113.501 90.1829L17.4199 145.509Z" fill="#907AC4"/>
<path d="M59.3248 149.009C59.1476 148.834 59.016 148.618 58.9418 148.381C58.8675 148.143 58.8528 147.891 58.8989 147.646L58.6079 147.384L39.5151 158.406L59.4313 168.783L69.7087 157.427C65.6347 155.475 62.4336 152.274 59.3248 149.009Z" fill="url(#paint0_linear_123_747)"/>
<path d="M127.514 161.273L114.973 169.705L136.124 179.571L152.385 170.38L157.303 163.204C156.835 162.934 127.976 161.557 127.514 161.273Z" fill="url(#paint1_linear_123_747)"/>
<path d="M111.896 105.883L90.6531 118.155L110.569 128.532L122.217 115.649" fill="url(#paint2_linear_123_747)"/>
<path d="M98.8162 10.9724L94.6073 10L48.0605 36.808L48.8271 128.482L50.5731 129.454" fill="#68E1FD"/>
<path opacity="0.36" d="M98.8162 10.9724L94.6073 10L48.0605 36.808L48.8271 128.482L50.5731 129.454" fill="#606060"/>
<path d="M98.8178 10.9709L99.3501 101.438L50.5747 129.453V38.2473L98.8178 10.9709Z" fill="#68E1FD"/>
<path d="M97.0993 15.8772V100.155L52.7883 124.699V40.925L97.0993 15.8772Z" fill="white"/>
<path d="M82.0647 38.8731V51.649L90.5039 47.6033V36.8077" fill="#68E1FD"/>
<path d="M91.1344 33.72L82.0636 38.8729C82.0636 38.8729 81.5951 47.3901 84.0154 49.8034L92.2701 45.7364C92.2701 45.7364 89.4239 39.4123 91.1344 33.72Z" fill="#68E1FD"/>
<path d="M60.0125 54.2895V70.749L70.8861 65.5322V51.6207" fill="#F8997C"/>
<path d="M71.695 47.6461L60.0122 54.2541C60.0122 54.2541 59.416 65.22 62.5319 68.3359L73.1785 63.0836C73.1785 63.0836 69.4947 54.9638 71.695 47.6461Z" fill="#68E1FD"/>
<path d="M82.9739 55.518V68.2939L91.413 64.2482V53.4526" fill="#68E1FD"/>
<path d="M92.0441 50.3649L82.9733 55.5179C82.9733 55.5179 82.5048 64.0351 84.9251 66.4483L93.1797 62.3742C93.1797 62.3742 90.3336 56.0573 92.0441 50.3649Z" fill="#68E1FD"/>
<path d="M83.4656 72.0051V84.781L91.9047 80.7353V69.9397" fill="#68E1FD"/>
<path d="M92.5282 66.8521L83.4645 71.9979C83.4645 71.9979 82.996 80.5152 85.4163 82.9284L93.671 78.8543C93.671 78.8543 90.8248 72.5445 92.5282 66.8521Z" fill="#68E1FD"/>
<path d="M77.0569 71.615L59.4333 81.4382V89.0114L77.0569 79.4083V71.615Z" fill="#68E1FD"/>
<path d="M114.317 103.42L110.648 102.873C110.747 103.368 110.728 103.879 110.592 104.365C110.456 104.851 110.208 105.298 109.867 105.67C108.966 106.642 107.603 107.09 106.616 107.941C105.814 108.651 104.601 109.9 104.948 111.1C105.417 112.725 107.837 112.661 108.81 112.313C109.519 112.065 112.557 109.545 114.31 108.055L114.317 103.42Z" fill="#1C1B19"/>
<path d="M122.215 111.603H117.332C117.503 112.078 117.559 112.587 117.496 113.088C117.433 113.588 117.253 114.067 116.97 114.485C116.218 115.578 114.94 116.189 114.088 117.204C113.379 118.034 112.385 119.432 112.903 120.575C113.613 122.115 115.991 121.696 116.899 121.207C117.609 120.816 120.867 117.175 122.215 115.642V111.603Z" fill="#1C1B19"/>
<path d="M86.9363 47.5823C86.9363 47.5823 82.6067 44.6297 82.1312 45.2826C81.4214 46.2976 85.0909 48.0153 85.0909 48.0153C85.0909 48.0153 84.0192 50.2581 84.7857 51.5002C85.5523 52.7423 90.6981 53.4024 90.6981 53.4024L91.8905 50.8189C91.2395 50.653 90.6565 50.2883 90.2226 49.7755C89.9386 49.2503 88.5972 47.3836 87.6461 47.1706C86.695 46.9577 85.2116 48.3914 85.6871 49.2006C86.1627 50.0097 87.4473 48.9805 87.4473 48.9805" fill="#FFC4B0"/>
<path d="M107.449 61.2666C107.449 61.2666 107.03 80.9201 107.449 86.0092C107.867 91.0982 108.868 104.414 108.868 104.414C108.868 104.414 110.543 106.798 114.958 104.414V62.7003L107.449 61.2666Z" fill="#C24327"/>
<path d="M113.566 62.6228C113.566 62.6228 115.056 93.0294 115.461 99.2186C115.887 105.685 116.355 112.605 116.355 112.605C116.355 112.605 119.407 115.004 123.027 111.973C123.027 111.973 122.906 91.3898 122.8 87.99C122.658 83.199 121.834 65.3909 120.67 61.9272" fill="#C24327"/>
<path d="M107.023 53.4023L107.555 63.6016C112.367 66.1355 115.746 66.0574 120.636 64.4037L121.679 46.049C121.679 46.049 122.787 43.863 115.753 41.2297H112.154C112.154 41.2297 109.315 40.9671 108.009 42.1382C106.703 43.3093 99.9746 51.0174 99.4919 51.4007C99.0093 51.784 90.1585 48.9449 90.1585 48.9449C90.1585 48.9449 88.0859 52.1176 88.5402 53.7997C88.5402 53.7997 97.0077 58.5907 100.606 57.4125C105.674 55.8013 107.023 53.4023 107.023 53.4023Z" fill="#6A5FB7"/>
<path d="M110.785 35.2538C110.785 35.2538 110.203 42.9123 113.766 43.0968C116.413 43.2317 117.421 40.2577 117.542 39.5976C117.542 39.5976 118.33 34.3524 114.582 34.0898C110.834 33.8272 110.785 35.2538 110.785 35.2538Z" fill="#FFC4B0"/>
<path d="M116.844 32.0096C116.73 31.896 116.631 30.9662 114.175 30.8597C113.552 30.7908 112.923 30.9231 112.38 31.2372C111.837 31.5514 111.409 32.0309 111.159 32.6058C110.807 32.7229 110.505 32.9558 110.303 33.2664C110.1 33.5771 110.009 33.9472 110.044 34.3163C110.193 35.5016 110.754 36.0978 112.386 36.2469C114.019 36.3959 115.396 36.2824 115.879 37.0631C116.361 37.8439 115.467 38.1988 116.028 38.7808C116.588 39.3628 117.035 37.5458 117.61 38.291C118.185 39.0363 116.326 40.2855 116.659 40.3636C116.908 40.4433 117.135 40.5766 117.326 40.7539C118.535 39.2268 119.248 37.3671 119.371 35.4236C119.662 32.0096 116.844 32.0096 116.844 32.0096Z" fill="#36393E"/>
<path d="M118.377 42.3589C118.377 42.3589 123.253 43.5442 126.49 50.2231C129.726 56.9021 129.329 63.9998 126.831 65.0076C124.332 66.0155 115.893 65.5542 115.758 65.0076C115.623 64.4611 114.942 59.9399 115.758 59.805C116.574 59.6702 123.118 59.6702 123.118 59.6702C123.118 59.6702 122.508 56.6324 120.152 55.9581" fill="#6A5FB7"/>
<path d="M108.355 65.9371C108.355 65.9371 108.319 56.8734 108.355 56.8024C108.39 56.7314 114.927 57.6186 114.927 57.6186V67.2147L108.355 65.9371Z" fill="#B8D766"/>
<path d="M116.246 61.3519C116.246 61.3519 113.79 59.6626 112.967 59.8046C112.143 59.9465 112.186 60.5711 112.186 60.5711C112.186 60.5711 110.483 59.982 110.213 60.3014C110.136 60.3878 110.085 60.4945 110.066 60.6089C110.047 60.7232 110.061 60.8406 110.106 60.9473C110.106 60.9473 109.624 61.0963 109.595 61.3448C109.567 61.5932 109.702 61.8345 110.135 61.941C110.135 61.941 109.574 62.3242 109.801 62.6507C109.914 62.8114 110.065 62.9408 110.241 63.0269C110.197 63.145 110.191 63.2743 110.226 63.3957C110.26 63.517 110.333 63.6241 110.433 63.7012C112.266 64.2974 114.222 64.4099 116.111 64.0277L116.246 61.3519Z" fill="#FFC4B0"/>
<path d="M79.0144 83.9149C79.0144 83.9149 79.9371 82.1902 80.2565 81.6933C80.5759 81.1965 81.9387 79.2801 82.4994 79.2446C83.5356 79.1807 81.6335 81.6578 82.0593 81.9417C82.4852 82.2257 85.6579 79.5498 86.3179 79.3582C87.8014 78.9394 86.9638 80.2312 86.9638 80.2312C86.9638 80.2312 88.2201 79.9118 88.4685 80.3448C88.717 80.7777 87.7233 81.4804 87.7233 81.4804C87.7233 81.4804 88.4331 81.2107 88.4898 81.8424C88.5466 82.4741 87.7304 82.7651 87.7304 82.7651C87.7304 82.7651 88.6389 82.9922 88.0924 83.7162C87.8156 84.0853 81.8677 86.1294 81.2715 86.4488C80.6753 86.7682 79.0144 83.9149 79.0144 83.9149Z" fill="#EEAD97"/>
<path d="M86.9997 80.2313L83.7915 82.1264" stroke="#8C6239" stroke-width="0.158585" stroke-miterlimit="10"/>
<path d="M87.7497 81.4882L84.5486 82.9007" stroke="#8C6239" stroke-width="0.158585" stroke-miterlimit="10"/>
<path d="M87.7649 82.7731L84.9968 83.7668" stroke="#8C6239" stroke-width="0.158585" stroke-miterlimit="10"/>
<path d="M59.4094 149.214C58.4087 148.568 57.0388 149.682 56.18 149.583C55.3212 149.484 54.9947 144.721 54.9947 144.721L49.9695 144.565L49.6714 154.048C50.318 154.487 51.0196 154.841 51.7581 155.098C51.7581 155.098 51.4245 150.754 52.333 150.839C53.2415 150.925 53.5893 154.282 54.6753 154.622C55.7612 154.963 59.1326 152.827 59.6933 152.443C60.2541 152.06 60.4102 149.86 59.4094 149.214Z" fill="#C15827"/>
<path d="M69.8227 155.36C68.822 154.714 67.4521 155.829 66.5933 155.729C65.7345 155.63 65.408 150.867 65.408 150.867L60.3899 150.711L60.0918 160.194C60.739 160.631 61.4405 160.982 62.1785 161.237C62.1785 161.237 61.8449 156.893 62.7534 156.979C63.6619 157.064 64.0097 160.421 65.0957 160.762C66.1816 161.102 69.553 158.966 70.1137 158.583C70.6745 158.199 70.8235 156.013 69.8227 155.36Z" fill="#C15827"/>
<path d="M50.9023 102.426C50.9023 102.426 47.1547 109.524 47.8503 149.321C47.8503 149.321 52.0024 152.16 58.5394 150.691C58.5394 150.691 58.7736 104.321 58.1135 102.646C57.4534 100.971 50.9023 102.426 50.9023 102.426Z" fill="#318A98"/>
<path d="M63.3506 101.589C64.7701 110.78 66.1897 119.972 66.9562 129.27C67.6234 137.162 67.7938 145.105 68.248 153.018L68.2977 153.884C66.4216 154.836 64.3558 155.354 62.2527 155.401C60.1497 155.448 58.0629 155.021 56.1464 154.154C56.1464 154.154 54.372 115.536 54.5353 110.255C54.6985 104.974 54.9682 98.8489 57.9067 98.0184C60.8451 97.188 63.3506 101.589 63.3506 101.589Z" fill="#318A98"/>
<path d="M50.575 82.9285C50.575 82.9285 43.0301 92.6737 44.8968 95.9883C46.7635 99.3029 54.5852 96.6981 54.5852 96.6981" fill="#A8C64E"/>
<path d="M78.85 82.7086C78.85 82.7086 72.1568 88.6778 69.5236 87.017C60.034 81.0265 58.0111 81.062 58.0111 81.062C58.0111 81.062 50.9134 78.7765 49.8913 81.8285C48.8693 84.8805 49.9765 101.88 51.1263 103.235L51.1902 103.292C51.7682 103.668 52.3844 103.982 53.0285 104.229C54.0216 104.534 55.041 104.745 56.0734 104.861C58.5868 104.928 61.0654 104.262 63.2066 102.944C64.1364 100.552 64.392 92.4609 64.392 92.4609C64.392 92.4609 68.1963 95.3567 72.5259 94.2211C76.3729 93.2132 82.2852 87.1234 82.2852 87.1234C82.1291 84.6889 78.85 82.7086 78.85 82.7086Z" fill="#B8D766"/>
<path d="M61.9986 74.3837C61.9986 74.3837 62.2399 80.7716 60.9694 80.8852C59.6989 80.9988 57.2573 80.3458 57.2644 79.0895C57.2715 77.8332 57.2644 74.9586 58.4213 74.554C59.5783 74.1495 61.4095 73.2339 61.9986 74.3837Z" fill="#EEAD97"/>
<path d="M62.1147 75.0927C62.3362 74.7665 62.484 74.396 62.5477 74.0068C62.6113 73.6177 62.5893 73.2194 62.4832 72.8396C62.3771 72.4599 62.1895 72.1078 61.9334 71.808C61.6773 71.5082 61.3589 71.2679 61.0003 71.1038C58.2819 69.5281 53.7394 69.8617 52.6321 73.3892C51.5888 76.711 52.7031 77.3143 51.099 78.4073C49.495 79.5004 47.3727 80.6502 48.189 82.7937C49.0052 84.9372 49.5021 84.2132 49.8924 85.065C50.2828 85.9167 48.6716 87.3433 49.6156 88.9119C50.5596 90.4805 55.1802 91.751 56.905 89.8559C58.6297 87.9608 57.6715 85.2282 58.942 84.7101C59.5568 84.459 60.0701 84.0098 60.4006 83.4337C60.731 82.8577 60.8597 82.1878 60.7661 81.5303C60.4893 80.3379 58.0974 78.2157 59.0272 76.9523C59.957 75.6889 62.1147 75.0927 62.1147 75.0927Z" fill="#744122"/>
<path d="M54.8333 113.697C54.8333 113.215 54.0596 113.186 54.0667 113.697C54.3411 127.174 55.0154 140.636 56.0895 154.083C56.125 154.559 56.8916 154.587 56.8561 154.083C55.7583 140.645 55.084 127.183 54.8333 113.697Z" fill="#165C63"/>
<path d="M149.354 146.332L148.958 146.367C148.462 146.41 148.095 146.848 148.139 147.343L150.181 170.591C150.224 171.087 150.662 171.454 151.158 171.41L151.554 171.375C152.049 171.332 152.416 170.895 152.373 170.399L150.331 147.151C150.287 146.655 149.85 146.288 149.354 146.332Z" fill="#68E1FD"/>
<path d="M145.028 145.909L144.636 145.844C144.145 145.763 143.681 146.095 143.6 146.586L139.784 169.609C139.703 170.101 140.035 170.565 140.526 170.646L140.918 170.711C141.409 170.793 141.873 170.46 141.955 169.969L145.77 146.946C145.852 146.455 145.52 145.991 145.028 145.909Z" fill="#68E1FD"/>
<path d="M149.948 139.149L149.569 139.269C149.095 139.42 148.833 139.927 148.984 140.402L156.056 162.641C156.206 163.116 156.713 163.378 157.188 163.227L157.567 163.107C158.041 162.956 158.303 162.449 158.152 161.975L151.08 139.735C150.93 139.26 150.423 138.998 149.948 139.149Z" fill="#68E1FD"/>
<path opacity="0.36" d="M149.354 146.332L148.958 146.367C148.462 146.41 148.095 146.848 148.139 147.343L150.181 170.591C150.224 171.087 150.662 171.454 151.158 171.41L151.554 171.375C152.049 171.332 152.416 170.895 152.373 170.399L150.331 147.151C150.287 146.655 149.85 146.288 149.354 146.332Z" fill="#606060"/>
<path opacity="0.36" d="M145.028 145.909L144.636 145.844C144.145 145.763 143.681 146.095 143.6 146.586L139.784 169.609C139.703 170.101 140.035 170.565 140.526 170.646L140.918 170.711C141.409 170.793 141.873 170.46 141.955 169.969L145.77 146.946C145.852 146.455 145.52 145.991 145.028 145.909Z" fill="#606060"/>
<path opacity="0.36" d="M149.948 139.149L149.569 139.269C149.095 139.42 148.833 139.927 148.984 140.402L156.056 162.641C156.206 163.116 156.713 163.378 157.188 163.227L157.567 163.107C158.041 162.956 158.303 162.449 158.152 161.975L151.08 139.735C150.93 139.26 150.423 138.998 149.948 139.149Z" fill="#606060"/>
<path d="M127.511 161.273C127.873 161.23 128.994 161.188 129.406 161.195C130.728 162.093 132.268 162.615 133.863 162.707C135.793 162.99 137.759 162.545 139.378 161.458L139.712 164.417C139.896 166.689 136.922 166.234 135.801 166.185C133.611 166.068 131.438 165.735 129.314 165.191C128.476 164.985 125.765 164.552 125.602 163.161C125.438 161.77 125.885 161.429 127.511 161.273Z" fill="#C24327"/>
<path d="M132.653 153.118C132.653 153.118 134.385 161.124 133.576 161.088C132.766 161.053 127.514 161.266 127.514 161.266C127.996 162.253 128.72 163.101 129.619 163.733C130.517 164.365 131.561 164.759 132.653 164.878C136.578 165.446 139.382 161.443 139.382 161.443L137.827 151.492" fill="#FFC4B0"/>
<path d="M140.034 149.421L141.198 155.808C141.198 155.808 139.367 157.689 133.199 157.469C127.031 157.249 133.199 146.212 133.199 146.212" fill="#A53421"/>
<path d="M142.774 132.28C142.774 132.28 135.896 126.758 131.325 126.105C126.755 125.452 124.377 130.413 124.696 133.727C125.016 137.042 135.96 138.859 135.96 138.859" fill="#EDBAB9"/>
<path d="M121.104 166.036C121.466 165.993 122.587 165.951 122.999 165.958C124.321 166.856 125.861 167.378 127.457 167.47C129.386 167.753 131.352 167.308 132.971 166.22L133.305 169.18C133.49 171.451 130.516 170.997 129.394 170.948C127.204 170.831 125.031 170.498 122.907 169.954C122.069 169.748 119.358 169.315 119.195 167.924C119.032 166.533 119.486 166.22 121.104 166.036Z" fill="#C24327"/>
<path d="M126.248 157.881C126.248 157.881 127.98 165.887 127.171 165.851C126.362 165.816 121.109 166.029 121.109 166.029C121.592 167.016 122.316 167.864 123.214 168.496C124.113 169.128 125.156 169.522 126.248 169.641C130.173 170.209 132.977 166.206 132.977 166.206L131.422 156.22" fill="#FFC4B0"/>
<path d="M142.338 132.535C142.338 132.535 135.461 127.013 130.89 126.36C126.319 125.707 123.941 130.668 124.261 133.983C124.58 137.297 135.525 139.114 135.525 139.114" fill="#EDBAB9"/>
<path d="M140.315 134.912C139.42 134.082 126.964 129.823 122.847 132.314C118.731 134.806 119.249 137.929 119.767 140.959C120.285 143.99 124.026 159.037 124.026 159.037C127.01 160.186 130.286 160.34 133.366 159.477L132.216 147.347L147.774 138.83" fill="#C24327"/>
<path d="M138.576 133.11L134.886 135.878L119.136 127.787L129.669 120.292L144.418 128.66L138.576 133.11Z" fill="#007058"/>
<path d="M154.301 124.088C154.301 124.088 154.577 114.811 150.319 114.655C146.06 114.499 140.574 117.544 140.268 122.463C139.963 127.381 139.14 136.552 139.14 138.269C139.14 139.987 142.234 146.346 142.234 146.346" fill="#4BE2C5"/>
<path d="M126.895 124.238L126.824 124.195C126.685 124.114 126.585 123.982 126.544 123.826C126.504 123.671 126.526 123.507 126.607 123.368C126.688 123.23 126.821 123.129 126.976 123.089C127.131 123.048 127.296 123.071 127.434 123.152L127.583 123.237C127.583 123.131 127.61 123.027 127.662 122.934C127.714 122.842 127.789 122.765 127.88 122.71C127.971 122.656 128.075 122.626 128.181 122.624C128.287 122.621 128.391 122.647 128.484 122.697C129.194 123.045 129.904 123.407 130.557 123.755L130.294 123.436C129.897 122.939 130.394 122.094 131.004 122.485C131.832 123.005 132.648 123.544 133.453 124.103C133.523 124.153 133.582 124.217 133.627 124.291C133.672 124.365 133.701 124.448 133.713 124.533C133.725 124.619 133.719 124.706 133.696 124.789C133.674 124.873 133.634 124.951 133.581 125.018L133.701 125.118C133.825 125.212 133.911 125.348 133.943 125.5C133.976 125.652 133.953 125.811 133.879 125.948C133.906 126.04 133.914 126.136 133.903 126.232C133.892 126.327 133.862 126.419 133.815 126.502C134.191 126.779 133.978 127.339 133.574 127.495L133.524 127.552L134.234 127.801C134.943 128.056 134.652 129.22 133.914 128.965L130.245 127.68C129.274 127.441 128.384 126.951 127.661 126.26C127.58 126.173 127.527 126.064 127.509 125.946C127.491 125.828 127.51 125.708 127.562 125.6C127.307 125.46 127.069 125.291 126.852 125.096C126.788 125.043 126.738 124.975 126.704 124.899C126.671 124.823 126.656 124.74 126.66 124.656C126.664 124.573 126.687 124.492 126.728 124.42C126.769 124.347 126.826 124.285 126.895 124.238Z" fill="#FFC4B0"/>
<path d="M141.911 126.544C141.911 126.544 135.311 123.861 133.345 123.286C133.345 123.286 131.308 124.705 131.875 128.474C131.875 128.474 137.823 134.557 141.514 136.381" fill="#4BE2C5"/>
<path d="M147.051 113.328C146.963 113.211 146.919 113.066 146.927 112.919C146.934 112.773 146.994 112.633 147.094 112.526C147.358 112.163 147.716 111.878 148.13 111.703C148.25 111.665 148.376 111.653 148.501 111.666C148.626 111.679 148.746 111.718 148.856 111.78C148.965 111.842 149.06 111.926 149.135 112.026C149.211 112.126 149.265 112.241 149.294 112.363C149.326 112.605 149.301 112.852 149.219 113.082C149.138 113.313 149.003 113.52 148.826 113.689C148.648 113.857 148.434 113.981 148.199 114.05C147.965 114.12 147.718 114.132 147.477 114.088C147.331 114.043 147.206 113.946 147.128 113.815C147.049 113.684 147.022 113.528 147.051 113.378V113.328Z" fill="#FF666D"/>
<path d="M158.123 143.166C158.391 142.526 158.612 141.867 158.783 141.193C160.089 136.069 160.948 116.827 152.295 117.615C142.806 118.474 146.014 142.237 136.389 141.506C126.765 140.774 122.833 143.28 126.765 147.006C134.615 154.445 153.275 154.615 158.123 143.166Z" fill="#68E1FD"/>
<path d="M145.564 106.245C145.564 106.245 143.832 113.413 146.274 114.904C147.999 115.961 150.831 115.273 151.796 112.476C152.761 109.68 148.112 104.47 145.564 106.245Z" fill="#FFC4B0"/>
<path d="M149.089 111.987C147.259 110.621 145.97 108.653 145.448 106.43C144.738 102.923 152.78 103.371 154.327 106.721C155.534 109.333 154.292 114.741 149.849 114.883L149.089 111.987Z" fill="#C24327"/>
<path d="M152.118 112.824C152.7 113.228 167.797 125.898 161.14 131.278C155.589 135.771 151.309 115.478 151.16 113.91" fill="#C24327"/>
<path d="M148.123 111.348C148.123 111.348 148.563 109.929 149.322 110.639C149.947 111.199 149.514 113.116 148.975 112.91" fill="#FFC4B0"/>
<path d="M191.262 51.9478L190.602 88.2313C190.594 88.6163 190.489 88.993 190.297 89.3267C190.105 89.6603 189.831 89.9399 189.502 90.1395C189.173 90.3392 188.798 90.4525 188.414 90.4688C188.029 90.4851 187.646 90.4039 187.301 90.2328L156.469 74.8379C155.957 74.5831 155.528 74.1885 155.232 73.6998C154.936 73.2111 154.784 72.6484 154.794 72.0769L155.454 35.8006C155.466 35.384 155.583 34.9773 155.795 34.6182C156.006 34.2591 156.305 33.9594 156.663 33.7468C157.022 33.5343 157.428 33.4159 157.845 33.4027C158.261 33.3895 158.674 33.4819 159.045 33.6713L189.615 49.2152C190.117 49.4719 190.537 49.8638 190.828 50.3467C191.119 50.8295 191.269 51.3841 191.262 51.9478Z" fill="#68E1FD"/>
<path opacity="0.36" d="M160.149 57.4476C166.019 59.1014 163.989 65.6171 168.212 69.0808C173.343 73.2968 175.31 61.3301 181.584 62.0824C189.143 62.9839 190.605 88.2304 190.605 88.2304C189.406 91.0695 187.305 90.2319 187.305 90.2319L154.762 74.0208L155.017 60.0525C156.38 58.4697 158.069 57.2347 160.149 57.4476Z" fill="#606060"/>
<path d="M183.611 139.519C180.545 141.443 177.401 143.472 174.171 145.197L182.376 149.456L188.246 142.969C186.519 142.086 184.952 140.92 183.611 139.519Z" fill="url(#paint3_linear_123_747)"/>
<path d="M192.192 129.418C192.192 129.418 191.773 143.997 185.548 144.324C179.324 144.65 178.905 129.418 178.905 129.418" fill="#6DE2FC"/>
<path d="M192.192 129.418C192.192 129.418 191.773 143.997 185.548 144.324C179.324 144.65 178.905 129.418 178.905 129.418" fill="#C24327"/>
<path d="M185.566 132.18C189.235 132.18 192.21 130.944 192.21 129.419C192.21 127.894 189.235 126.658 185.566 126.658C181.897 126.658 178.923 127.894 178.923 129.419C178.923 130.944 181.897 132.18 185.566 132.18Z" fill="#311E69"/>
<path d="M187.377 131.299C188.596 125.412 190.699 119.743 193.615 114.485C193.857 114.052 194.652 114.428 194.417 114.861C191.546 120.066 189.478 125.675 188.285 131.498C188.179 131.966 187.284 131.768 187.377 131.299Z" fill="#311E69"/>
<path d="M183.577 132.222C184.05 125.167 184.841 118.133 185.948 111.121C186.026 110.652 186.949 110.645 186.878 111.121C185.756 118.114 184.966 125.136 184.507 132.187L183.577 132.222Z" fill="#311E69"/>
<path d="M195.659 113.115C196.75 112.882 197.885 112.953 198.938 113.321C199.684 113.584 201.231 114.336 200.926 115.145C200.62 115.954 198.747 115.855 198.001 115.649C197.465 115.524 196.96 115.291 196.518 114.962C196.076 114.634 195.706 114.218 195.432 113.74C195.429 113.712 195.429 113.683 195.432 113.655C195.397 113.607 195.375 113.551 195.368 113.493C195.361 113.434 195.37 113.375 195.392 113.321C195.415 113.266 195.452 113.219 195.499 113.183C195.545 113.147 195.601 113.124 195.659 113.115Z" fill="#C3EA75"/>
<path d="M194.196 112.675C194.224 112.729 194.263 112.776 194.311 112.813C194.359 112.85 194.414 112.877 194.473 112.892C194.532 112.907 194.593 112.909 194.653 112.898C194.713 112.888 194.77 112.865 194.82 112.831C195.835 112.235 197.106 111.859 197.823 110.979C198.319 110.368 198.532 109.36 197.624 108.913C197.188 108.738 196.711 108.691 196.25 108.778C195.788 108.864 195.361 109.081 195.019 109.403C194.189 110.169 194.11 111.291 193.912 112.242C193.896 112.337 193.917 112.433 193.969 112.514C194.022 112.594 194.103 112.651 194.196 112.675ZM196.112 109.594V109.687C195.816 109.878 195.555 110.118 195.338 110.397C195.523 110.073 195.79 109.804 196.112 109.616V109.594Z" fill="#C3EA75"/>
<path d="M191.485 110.724C192.982 110.184 193.238 112.243 193.28 112.931C193.281 113.016 193.25 113.097 193.194 113.16C193.137 113.223 193.059 113.263 192.975 113.272C192.881 113.339 192.768 113.376 192.652 113.376C192.536 113.376 192.423 113.339 192.329 113.272C191.825 112.91 191.187 112.562 191.03 112.008C190.91 111.59 190.91 110.93 191.485 110.724Z" fill="#C3EA75"/>
<path d="M185.808 109.758C185.88 109.874 185.993 109.958 186.124 109.995C186.256 110.032 186.396 110.018 186.518 109.957C186.595 109.972 186.675 109.972 186.752 109.957C187.909 109.815 188.498 108.345 188.704 107.572C188.91 106.798 189.137 105.535 187.994 105.13C187.506 104.976 186.977 105.012 186.515 105.232C186.053 105.452 185.691 105.839 185.503 106.315C185.154 107.459 185.263 108.694 185.808 109.758ZM186.433 108.707C186.402 108.51 186.402 108.309 186.433 108.111C186.423 108.246 186.423 108.381 186.433 108.516C186.518 108.601 186.468 108.658 186.447 108.715L186.433 108.707Z" fill="#C3EA75"/>
<path d="M179.729 109.964C179.686 110.915 180.865 111.298 181.858 111.454C182.462 111.547 184.633 111.98 184.697 111.128C184.755 111.079 184.795 111.011 184.809 110.936C184.823 110.861 184.811 110.783 184.775 110.716C184.293 109.815 183.15 109.417 182.036 109.176C181.07 108.97 179.771 108.906 179.729 109.964ZM180.637 109.921C180.673 109.977 180.714 110.029 180.758 110.077C180.723 110.128 180.701 110.187 180.694 110.248C180.645 110.211 180.611 110.157 180.601 110.096C180.59 110.035 180.603 109.973 180.637 109.921Z" fill="#C3EA75"/>
<path d="M188.056 110.695C188.108 110.791 188.189 110.868 188.287 110.914C188.386 110.96 188.496 110.973 188.603 110.951C189.231 110.892 189.836 110.68 190.363 110.333C190.461 110.273 190.545 110.194 190.612 110.101C190.678 110.008 190.725 109.902 190.751 109.79C190.776 109.679 190.778 109.563 190.758 109.45C190.738 109.337 190.695 109.23 190.633 109.134C189.923 108.275 188.269 109.723 187.843 110.191C187.637 110.411 187.808 110.624 188.056 110.695ZM189.355 109.985H189.277L189.745 109.73C189.636 109.844 189.502 109.934 189.355 109.993V109.985Z" fill="#C3EA75"/>
</g>
<defs>
<filter id="filter0_d_123_747" x="0.419922" y="0" width="222.16" height="222.82" filterUnits="userSpaceOnUse" color-interpolation-filters="sRGB">
<feFlood flood-opacity="0" result="BackgroundImageFix"/>
<feColorMatrix in="SourceAlpha" type="matrix" values="0 0 0 0 0 0 0 0 0 0 0 0 0 0 0 0 0 0 127 0" result="hardAlpha"/>
<feOffset dy="7"/>
<feGaussianBlur stdDeviation="8.5"/>
<feComposite in2="hardAlpha" operator="out"/>
<feColorMatrix type="matrix" values="0 0 0 0 0 0 0 0 0 0 0 0 0 0 0 0 0 0 0.25 0"/>
<feBlend mode="normal" in2="BackgroundImageFix" result="effect1_dropShadow_123_747"/>
<feBlend mode="normal" in="SourceGraphic" in2="effect1_dropShadow_123_747" result="shape"/>
</filter>
<linearGradient id="paint0_linear_123_747" x1="64.4564" y1="145.957" x2="52.078" y2="160.997" gradientUnits="userSpaceOnUse">
<stop stop-color="#1B1464"/>
<stop offset="1" stop-color="white"/>
</linearGradient>
<linearGradient id="paint1_linear_123_747" x1="149.851" y1="150.407" x2="131.823" y2="172.289" gradientUnits="userSpaceOnUse">
<stop stop-color="#1B1464"/>
<stop offset="1" stop-color="white"/>
</linearGradient>
<linearGradient id="paint2_linear_123_747" x1="115.637" y1="105.727" x2="103.251" y2="120.767" gradientUnits="userSpaceOnUse">
<stop stop-color="#1B1464"/>
<stop offset="1" stop-color="white"/>
</linearGradient>
<linearGradient id="paint3_linear_123_747" x1="186.592" y1="137.553" x2="179.523" y2="146.141" gradientUnits="userSpaceOnUse">
<stop stop-color="#1B1464"/>
<stop offset="1" stop-color="white"/>
</linearGradient>
</defs>
</svg>
