<svg width="239" height="211" viewBox="0 0 239 211" fill="none" xmlns="http://www.w3.org/2000/svg">
<g filter="url(#filter0_d_123_378)">
<path d="M219.872 113.245L140.947 67.3453C140.38 67.0179 139.737 66.8455 139.082 66.8455C138.427 66.8455 137.783 67.0179 137.216 67.3453L19.1567 134.886C18.5874 135.213 18.1144 135.684 17.7855 136.252C17.4566 136.82 17.2834 137.465 17.2834 138.122C17.2834 138.778 17.4566 139.423 17.7855 139.991C18.1144 140.559 18.5874 141.03 19.1567 141.357L94.6308 184.933C96.483 186.003 98.584 186.566 100.723 186.566C102.861 186.566 104.962 186.003 106.815 184.933L219.838 119.702C220.406 119.378 220.878 118.909 221.208 118.344C221.538 117.779 221.713 117.138 221.716 116.483C221.72 115.829 221.551 115.186 221.228 114.617C220.904 114.049 220.437 113.576 219.872 113.245Z" fill="#FFBF41"/>
<path style="mix-blend-mode:multiply" d="M165.226 143.974C162.226 145.724 159.916 146.96 155.304 149.591C158.796 151.716 160.326 152.94 160.723 153.172L171.096 147.118C170.289 146.66 168.964 145.826 165.226 143.974Z" fill="url(#paint0_linear_123_378)"/>
<path style="mix-blend-mode:multiply" d="M131.947 126.413C121.882 132.282 114.686 136.225 99.2021 145.068C110.921 152.188 120.003 158.734 121.322 159.513L156.117 139.088C153.418 137.667 144.48 132.61 131.947 126.413Z" fill="url(#paint1_linear_123_378)"/>
<path style="mix-blend-mode:multiply" d="M110.723 154.846C106.166 157.504 102.906 159.288 95.9019 163.292C101.205 166.518 105.318 169.483 105.92 169.832L121.657 160.586C120.461 159.944 116.416 157.655 110.723 154.846Z" fill="url(#paint2_linear_123_378)"/>
<path style="mix-blend-mode:multiply" d="M54.0066 127.479C43.9138 133.348 39.4516 135.282 23.9399 144.125C35.6864 151.218 65.7463 168.233 67.0651 168.984L94.7811 154.826C92.0751 153.418 66.5116 133.676 54.0066 127.479Z" fill="url(#paint3_linear_123_378)"/>
<path d="M52.7219 61.8787V81.6202L58.0383 84.415V62.6782" fill="#E85642"/>
<path d="M185.022 34.1627V102.243L94.781 154.846V77.4997L185.022 34.1627Z" fill="#68E1FD"/>
<path d="M54.0134 62.6782V131.018L94.7811 154.846V85.0778L54.0134 62.6782Z" fill="#68E1FD"/>
<path opacity="0.51" d="M185.022 34.1627V102.243L94.781 154.846V77.4997L185.022 34.1627Z" fill="#3795A5"/>
<path d="M54.9839 114.031V62.1041L94.7812 85.0778V137.995" fill="#68E1FD"/>
<path opacity="0.78" d="M54.0134 62.6782V131.018L94.7811 154.846V85.0778L54.0134 62.6782Z" fill="#3795A5"/>
<path d="M147.473 10L54.0134 62.644V62.6782L94.3916 85.6997L185.022 34.1627L147.473 10Z" fill="#68E1FD"/>
<path d="M94.9656 86.342V105.674L101.498 109.446V90.1209L94.9656 86.342Z" fill="#E85642"/>
<path d="M101.498 90.1208V81.6543L52.7219 53.173V61.8786L94.9656 86.342" fill="#E85642"/>
<path d="M115.978 148.97C113.299 148.737 110.47 147.924 108.461 146.093V154.04C108.461 156.227 109.33 158.325 110.877 159.872C112.424 161.419 114.522 162.288 116.709 162.288C118.897 162.288 120.995 161.419 122.541 159.872C124.088 158.325 124.957 156.227 124.957 154.04V145.963C122.176 147.118 118.978 149.236 115.978 148.97Z" fill="#68E1FD"/>
<path d="M116.737 150.418C121.292 150.418 124.984 148.46 124.984 146.045C124.984 143.63 121.292 141.672 116.737 141.672C112.181 141.672 108.489 143.63 108.489 146.045C108.489 148.46 112.181 150.418 116.737 150.418Z" fill="#5ED18D"/>
<path d="M116.737 146.783C116.737 146.783 111.126 145.956 109.644 136.881C109.644 136.868 114.427 139.526 116.737 146.783Z" fill="#5ED18D"/>
<path d="M117.557 145.628C117.557 145.628 111.12 134.08 117.557 126.324C119.521 132.609 119.521 139.343 117.557 145.628Z" fill="#5ED18D"/>
<path d="M116.737 138.371C116.737 138.371 111.126 137.544 109.644 128.469C109.644 128.469 114.427 131.107 116.737 138.371Z" fill="#5ED18D"/>
<path d="M117.42 142.068C117.42 142.068 116.012 136.601 123.809 131.702C123.809 131.702 123.222 137.134 117.42 142.068Z" fill="#5ED18D"/>
<path d="M116.737 150.418C121.292 150.418 124.984 148.46 124.984 146.045C124.984 143.63 121.292 141.672 116.737 141.672C112.181 141.672 108.489 143.63 108.489 146.045C108.489 148.46 112.181 150.418 116.737 150.418Z" fill="#146666"/>
<path d="M116.737 146.783C116.737 146.783 111.126 145.956 109.644 136.881C109.644 136.868 114.427 139.526 116.737 146.783Z" fill="#5ED18D"/>
<path d="M117.557 145.628C117.557 145.628 111.12 134.08 117.557 126.324C119.521 132.609 119.521 139.343 117.557 145.628Z" fill="#5ED18D"/>
<path d="M116.737 138.371C116.737 138.371 111.126 137.544 109.644 128.469C109.644 128.469 114.427 131.107 116.737 138.371Z" fill="#5ED18D"/>
<path d="M117.42 142.068C117.42 142.068 116.012 136.601 123.809 131.702C123.809 131.702 123.222 137.134 117.42 142.068Z" fill="#5ED18D"/>
<path d="M146.844 144.364L161.153 136.526V120.433L144.125 127.649L146.844 144.364Z" fill="#E87D34"/>
<path d="M130.075 118.582V134.681L146.844 144.364L147.213 128.476L130.075 118.582Z" fill="#EF8A3F"/>
<path d="M143.879 110.313C139.471 113.334 134.626 115.623 130.075 118.39V118.582L147.213 128.476L161.153 120.427L143.879 110.313Z" fill="#FF9A55"/>
<path d="M148.99 113.716L143.879 111.414C143.879 111.414 145.102 115.91 143.974 116.429C143.803 116.504 143.51 116.375 143.346 116.327C142.129 115.951 140.968 115.192 139.656 115.206C138.637 115.206 137.045 116.067 137.824 117.256C138.46 118.254 145.888 122.723 148.477 121.848C150.903 121.062 148.99 113.716 148.99 113.716Z" fill="#07375D"/>
<path d="M162.547 46.9205C162.547 46.9205 162.718 42.7043 162.336 41.8502C161.953 40.996 159.377 38.4335 158.639 38.3515C157.901 38.2695 158.126 38.7 158.126 38.7C158.126 38.7 156.76 38.1123 156.575 38.3378C156.391 38.5633 156.473 38.8435 156.855 39.1578C156.855 39.1578 155.987 38.987 155.912 39.3697C155.837 39.7523 156.596 40.053 156.596 40.053C156.596 40.053 155.858 40.1213 155.912 40.504C155.967 40.8867 157.279 41.5358 157.518 41.8707C157.757 42.2055 158.461 42.4515 158.461 42.9367C158.342 43.3852 158.331 43.8554 158.428 44.309C158.526 44.7626 158.729 45.1868 159.021 45.547C159.631 46.3529 160.047 47.2881 160.238 48.2803C160.238 48.2803 162.308 47.9592 162.547 46.9205Z" fill="#FFC799"/>
<path d="M165.82 135.638C165.82 135.638 167.433 142.655 166.804 143.059C166.176 143.462 163.333 143.899 163.921 145.607C164.508 147.316 167.556 147.828 168.704 148.061C169.852 148.293 171.984 146.106 171.984 145.184C171.984 144.261 173.194 139.902 173.132 139.205C173.071 138.508 170.399 134.49 170.399 134.49" fill="#07375D"/>
<path d="M174.144 88.2211C174.144 88.2211 174.068 117.905 174.745 122.032C175.421 126.16 176.713 135.638 176.713 135.638C176.713 135.638 170.987 137.688 165.821 135.638C165.821 135.638 160.422 111.516 162.103 97.7195C163.784 83.923 174.144 88.2211 174.144 88.2211Z" fill="#9BC634"/>
<path d="M172.674 89.4921C168.889 88.4945 159.527 89.4921 159.527 89.4921C159.527 89.4921 146.393 86.916 142.369 87.2098C138.344 87.5036 137.032 89.9431 137.838 93.3598C138.644 96.7765 141.76 112.493 141.76 112.493C141.76 112.493 145.28 115.479 151.122 114.468L149.106 99.9676C149.106 99.9676 161.283 105.776 168.24 102.92C170.087 102.19 171.684 100.942 172.838 99.3253C172.797 96.0385 172.627 92.7653 172.674 89.4921Z" fill="#9BC634"/>
<path d="M174.123 88.8567C175.093 83.349 175.64 70.9465 174.171 66.99C172.422 62.3297 163.627 67.3932 160.217 69.9147C158.283 71.3428 159.773 86.6085 160.217 90.8042C164.023 93.4828 171.54 92.7927 174.123 88.8567Z" fill="#FF7B61"/>
<path d="M173.843 66.9353C173.843 66.9353 172.572 65.6984 171.547 64.6871C171.485 64.3796 170.945 63.8876 170.939 63.5938C169.898 62.3509 169.073 60.9418 168.499 59.4254C167.522 56.6921 164.597 43.8044 164.597 43.8044C164.597 43.8044 160.039 44.5356 157.983 47.6858C157.983 47.6858 160.716 60.8058 162.862 65.3636C164.1 68.0295 165.878 70.4097 168.082 72.3541C171.267 71.6161 171.8 65.0219 173.843 66.9353Z" fill="#FF7B61"/>
<path d="M165.212 63.1975C165.301 63.3273 165.212 66.9216 165.212 66.9216C165.212 66.9216 166.518 67.0173 168.998 65.309L168.8 61.5165L165.212 63.1975Z" fill="#FFC799"/>
<path d="M166.388 54.7447C166.388 54.7447 165.274 57.478 164.119 58.4005C162.964 59.323 161.926 61.414 162.923 63.1838C163.921 64.9537 171.014 62.726 171.123 60.676C171.233 58.626 170.7 53.5967 166.388 54.7447Z" fill="#FFC799"/>
<path d="M173.139 55.059C172.625 54.5028 172.006 54.0535 171.317 53.7369C170.629 53.4203 169.885 53.2426 169.128 53.214C166.784 53.2618 165.581 54.5807 165.807 55.9473C166.032 57.314 167.727 57.8333 167.782 58.626C167.836 59.4187 166.682 63.1633 167.235 64.0927C167.789 65.022 168.834 64.9058 169.88 64.8717C170.925 64.8375 174.369 62.3433 175.018 59.3503C175.201 58.5282 175.117 57.6694 174.779 56.8979C174.441 56.1265 173.867 55.4825 173.139 55.059Z" fill="#352118"/>
<path d="M162.937 68.6436C162.937 68.6436 152.83 67.1676 152.004 66.6551C151.177 66.1426 149.81 57.601 149.81 57.601C148.062 58.0207 146.337 58.5339 144.644 59.1385C144.644 59.1385 144.719 68.7735 146.045 71.6366C147.371 74.4998 159.712 77.1511 159.712 77.1511" fill="#FF7B61"/>
<path d="M161.782 103.61C161.782 103.61 167.146 104.737 171.103 101.191L162.786 117.871C162.786 117.871 161.604 105.94 161.782 103.61Z" fill="#90BA1C"/>
<path d="M146.844 54.0545L161.153 46.2098V30.1173L144.125 37.3333L146.844 54.0545Z" fill="#E87D34"/>
<path d="M130.075 28.2723V44.3648L146.844 54.0545L147.213 38.167L130.075 28.2723Z" fill="#EF8A3F"/>
<path d="M143.879 20.0176C139.471 23.038 134.626 25.3271 130.075 28.0946V28.286L147.213 38.167L161.153 30.1173L143.879 20.0176Z" fill="#FF9A55"/>
<path d="M143.749 54.0135C144.541 55.4067 145.128 56.9074 145.491 58.4688C145.491 58.5303 145.546 58.7285 145.594 58.995L146.755 58.8036C147.61 58.6396 148.464 58.4483 149.304 58.216C149.181 56.9313 149.031 55.4826 148.867 54.3893C148.96 53.4934 149.162 52.6122 149.468 51.7653C149.744 51.1871 149.83 50.5366 149.714 49.9066C149.687 49.8217 149.635 49.7471 149.564 49.6933C149.493 49.6394 149.407 49.6089 149.318 49.606C148.867 49.606 148.703 49.9681 148.471 50.2893C148.163 50.7335 147.876 51.1913 147.589 51.656C146.455 50.385 144.719 48.8201 144.09 48.7313C143.202 48.6015 143.475 49.155 143.475 49.155C143.475 49.155 141.801 48.4716 141.596 48.7108C141.391 48.95 141.473 49.319 141.938 49.7016C141.938 49.7016 140.886 49.4898 140.797 49.9545C140.708 50.4191 141.596 50.795 141.596 50.795C141.596 50.795 140.701 50.877 140.797 51.3416C140.892 51.8063 142.491 52.5921 142.744 52.9611C142.997 53.3301 143.475 53.5966 143.749 54.0135Z" fill="#FFC799"/>
<path d="M161.618 43.0119C161.542 42.9783 161.471 42.9347 161.406 42.882C161.479 42.8518 161.539 42.7968 161.575 42.7268C161.611 42.6568 161.622 42.5763 161.604 42.4994C161.522 42.1158 161.398 41.7424 161.235 41.3855C161.307 41.3974 161.38 41.3874 161.445 41.3568C161.51 41.3262 161.565 41.2764 161.601 41.2141C161.637 41.1518 161.654 41.0799 161.648 41.008C161.643 40.9361 161.616 40.8676 161.57 40.8115C161.119 40.2842 160.617 39.8014 160.074 39.3697C159.8 39.151 159.472 38.782 159.097 38.823C159.023 38.8266 158.951 38.8527 158.893 38.8979C158.834 38.9432 158.791 39.0052 158.769 39.0759C158.372 40.0735 159.923 40.709 160.169 41.5017C160.415 42.2944 160.374 43.21 161.27 43.5995C161.666 43.7772 162.014 43.1895 161.618 43.0119Z" fill="#FFC799"/>
<path d="M121.684 97.2685L94.781 127.116L94.9655 105.673L121.684 97.2685Z" fill="#3795A5"/>
<path d="M52.7219 61.8787V53.173L70.5774 43.0734L121.684 69.8327V97.2685L101.498 109.446V90.1209L52.7219 61.8787Z" fill="#FF7B61"/>
<path d="M101.498 81.6543L121.684 69.8326V97.2685L101.498 109.445V81.6543Z" fill="#FF8373"/>
<path d="M52.7219 81.6201L101.498 109.445V81.6543L52.7219 53.173" fill="#E85642"/>
<path d="M80.0825 71.7802C80.5299 70.8343 80.8273 69.8245 80.964 68.7872C81.0255 67.8783 80.2807 64.7281 80.964 64.5231C81.6473 64.3181 82.1325 66.7166 82.1325 66.7166C82.1325 66.7166 82.2624 61.5302 82.9115 61.5302C83.5607 61.5302 83.5607 64.3045 83.5607 64.3045C83.5607 64.3045 84.1415 60.7511 84.7907 60.8878C85.4399 61.0245 84.7907 65.1108 84.7907 65.1108C84.7907 65.1108 85.3168 61.6053 86.0548 61.865C86.7928 62.1246 86.0548 65.6438 86.0548 65.6438C86.0548 65.6438 86.663 64.038 87.1345 64.5368C87.606 65.0357 85.5697 69.737 85.31 70.2495C85.0503 70.762 83.1985 73.6662 83.014 73.8165C82.8295 73.9668 80.0825 71.7802 80.0825 71.7802Z" fill="#FFC799"/>
<path d="M70.4067 67.9125C69.1357 68.7052 73.9942 62.9379 73.9259 62.029C73.8576 61.1202 74.6092 57.97 73.9259 57.765C73.2426 57.56 72.7574 59.9585 72.7574 59.9585C72.7574 59.9585 72.6276 54.772 71.9784 54.772C71.3292 54.772 71.3292 57.5464 71.3292 57.5464C71.3292 57.5464 70.7484 53.993 70.0992 54.1297C69.4501 54.2664 70.0992 58.3527 70.0992 58.3527C70.0992 58.3527 69.5731 54.8472 68.8351 55.1069C68.0971 55.3665 68.8351 58.8857 68.8351 58.8857C68.8351 58.8857 68.2269 57.2799 67.7554 57.7787C67.2839 58.2775 68.8146 61.824 69.0674 62.3365C69.3202 62.849 65.9241 66.9012 66.1086 67.0515C66.2931 67.2019 70.4067 67.9125 70.4067 67.9125Z" fill="#FFC799"/>
<path d="M51.1299 77.1921C51.1299 77.1921 60.2114 70.188 61.0245 69.6755C61.8377 69.163 68.9034 62.1041 68.9034 62.1041C70.4545 62.9083 72.0517 63.6202 73.6867 64.2361C73.6867 64.2361 67.4752 72.5455 64.8034 74.903C62.4254 76.953 55.0932 82.6793 55.0932 82.6793" fill="#FF7B61"/>
<path d="M51.2732 139.191C51.2732 139.191 49.9886 144.658 50.7744 145.273C50.7744 145.273 55.5099 142.778 56.2411 144.822C56.8287 146.434 53.5556 147.712 51.3621 148.737C49.4966 149.612 45.8339 150.787 45.1642 149.154C44.4946 147.521 47.6447 135.979 47.6447 135.979" fill="#07375D"/>
<path d="M65.555 148.225C65.555 148.225 65.1655 153.842 66.0334 154.306C66.0334 154.306 71.0012 151.648 72.0535 153.548C72.8872 155.044 69.3544 157.156 67.4957 158.051C65.637 158.946 62.029 160.504 61.1202 159.028C60.2114 157.552 61.4755 145.628 61.4755 145.628" fill="#07375D"/>
<path d="M52.6401 142.095C54.3553 134.579 59.6648 110.348 59.0293 102.708C58.2708 93.6127 51.1914 96.2709 51.1914 96.2709C51.1914 96.2709 48.6289 109.774 46.7429 120.188C45.2533 128.449 44.0096 139.143 43.5928 143.243C46.5789 144.644 50.4124 144.446 52.6401 142.095Z" fill="#352118"/>
<path d="M68.1789 150.418C68.0285 138.569 67.926 107.245 64.5435 99.9061C60.2727 90.647 55.7627 100.043 55.7627 104.361C55.7627 108.345 59.0222 147.958 59.5279 153.561C62.5277 154.983 67.1197 153.623 68.1789 150.418Z" fill="#352118"/>
<path d="M64.6462 100.35C65.145 95.567 66.4638 81.3263 64.5983 79.946C61.1817 77.4245 52.8723 72.5318 51.123 77.2126C49.7563 80.8275 50.098 91.713 50.918 97.7126C54.9155 100.07 60.0815 101.498 64.6462 100.35Z" fill="#FF7B61"/>
<path d="M59.6031 73.1947C59.5142 73.3245 59.6031 76.9188 59.6031 76.9188C59.6031 76.9188 58.2979 77.0145 55.8174 75.3062L56.0156 71.5137L59.6031 73.1947Z" fill="#FFC799"/>
<path d="M58.4279 64.7419C58.4279 64.7419 59.5417 67.4752 60.6966 68.3977C61.8514 69.3202 62.8901 71.4112 61.8924 73.181C60.8947 74.9509 53.8017 72.7232 53.6924 70.6732C53.5831 68.6232 54.1161 63.587 58.4279 64.7419Z" fill="#FFC799"/>
<path d="M51.6765 65.0562C52.1909 64.5 52.81 64.0507 53.4983 63.7341C54.1866 63.4175 54.9306 63.2398 55.6877 63.2112C58.0315 63.259 59.2342 64.5778 59.0087 65.9445C58.7832 67.3112 57.0885 67.8305 57.0339 68.6232C56.9792 69.4158 58.134 73.1605 57.5805 74.0898C57.027 75.0192 55.9815 74.903 54.936 74.8688C53.8905 74.8347 50.4465 72.3405 49.7974 69.3475C49.615 68.5254 49.6987 67.6665 50.0365 66.8951C50.3743 66.1237 50.9487 65.4797 51.6765 65.0562Z" fill="#352118"/>
<path d="M61.8787 78.6408C61.8787 78.6408 71.9852 77.1648 72.812 76.6523C73.6388 76.1398 80.6567 69.0742 80.6567 69.0742C82.2078 69.8783 83.805 70.5902 85.44 71.2062C85.44 71.2062 79.2285 79.5155 76.5567 81.873C74.1787 83.923 64.4138 88.3988 64.4138 88.3988" fill="#FF7B61"/>
</g>
<defs>
<filter id="filter0_d_123_378" x="0.283447" y="0" width="238.433" height="210.566" filterUnits="userSpaceOnUse" color-interpolation-filters="sRGB">
<feFlood flood-opacity="0" result="BackgroundImageFix"/>
<feColorMatrix in="SourceAlpha" type="matrix" values="0 0 0 0 0 0 0 0 0 0 0 0 0 0 0 0 0 0 127 0" result="hardAlpha"/>
<feOffset dy="7"/>
<feGaussianBlur stdDeviation="8.5"/>
<feComposite in2="hardAlpha" operator="out"/>
<feColorMatrix type="matrix" values="0 0 0 0 0 0 0 0 0 0 0 0 0 0 0 0 0 0 0.25 0"/>
<feBlend mode="normal" in2="BackgroundImageFix" result="effect1_dropShadow_123_378"/>
<feBlend mode="normal" in="SourceGraphic" in2="effect1_dropShadow_123_378" result="shape"/>
</filter>
<linearGradient id="paint0_linear_123_378" x1="167.023" y1="143.503" x2="161.748" y2="150.186" gradientUnits="userSpaceOnUse">
<stop stop-color="#808080"/>
<stop offset="1" stop-color="white"/>
</linearGradient>
<linearGradient id="paint1_linear_123_378" x1="139.772" y1="132.754" x2="124.731" y2="144.336" gradientUnits="userSpaceOnUse">
<stop stop-color="#808080"/>
<stop offset="1" stop-color="white"/>
</linearGradient>
<linearGradient id="paint2_linear_123_378" x1="114.68" y1="154.498" x2="106.562" y2="164.775" gradientUnits="userSpaceOnUse">
<stop stop-color="#808080"/>
<stop offset="1" stop-color="white"/>
</linearGradient>
<linearGradient id="paint3_linear_123_378" x1="70.9669" y1="131.497" x2="58.0656" y2="151.518" gradientUnits="userSpaceOnUse">
<stop stop-color="#808080"/>
<stop offset="1" stop-color="white"/>
</linearGradient>
</defs>
</svg>
